<svg width="369" height="323" viewBox="0 0 369 323" fill="none" xmlns="http://www.w3.org/2000/svg">
<path d="M9.13275 40.375C7.93342 40.375 6.74583 40.5811 5.6378 40.9816C4.52976 41.382 3.52297 41.969 2.67492 42.7089C1.82687 43.4488 1.15415 44.3273 0.695189 45.294C0.236226 46.2608 0 47.297 0 48.3434L0 274.657C0 276.77 0.962198 278.797 2.67492 280.291C4.38764 281.785 6.71059 282.625 9.13275 282.625H359.867C362.289 282.625 364.612 281.785 366.325 280.291C368.038 278.797 369 276.77 369 274.657V48.3434C369 46.2301 368.038 44.2033 366.325 42.7089C364.612 41.2145 362.289 40.375 359.867 40.375H9.13275ZM18.2655 56.3118H111.896C104.674 58.0786 105.63 60.9113 107.992 62.0612L109.412 62.7492L108.39 63.4663C107.076 64.3965 107.099 65.1976 108.456 65.6627C109.047 65.8662 109.423 66.2053 109.283 66.4088C108.844 67.0516 109.837 68.2176 111.172 68.6375C112.231 68.9734 112.696 68.912 113.884 68.279L115.324 67.5135L117.146 68.3403C119.375 69.3546 119.165 69.1866 119.386 70.2202C119.49 70.695 119.859 71.3733 120.217 71.7286C120.571 72.0839 120.862 72.5781 120.862 72.8365C120.862 73.4437 122.08 77.0097 122.656 78.0949C122.969 78.686 122.966 79.0865 122.656 79.4289C122.224 79.9037 121.98 80.9535 122.076 81.916C122.135 82.4877 123.442 82.5427 124.146 82.0065C124.423 81.7933 124.556 81.7384 124.445 81.8773C124.335 82.0129 124.704 82.5136 125.268 82.9819L126.294 83.8282L124.718 83.6505C123.268 83.4729 123.087 83.5536 122.357 84.781C121.608 86.0375 121.6 86.1506 122.276 86.761C123.235 87.6267 125.257 87.2326 124.969 86.2378C124.814 85.7113 124.98 85.5918 125.681 85.7145C126.449 85.8502 126.556 86.0795 126.408 87.2229C126.298 88.0692 125.977 88.6312 125.537 88.7346C123.822 89.1415 123.294 94.1448 124.752 96.1765C125.091 96.6481 125.49 97.5525 125.644 98.1791C125.977 99.5357 127.988 103.237 128.836 104.058C129.04 104.227 129.283 104.356 129.548 104.436C129.813 104.517 130.096 104.546 130.375 104.523C131.028 104.445 131.412 104.655 131.604 105.195C131.796 105.744 132.239 105.973 133.072 105.973C134.157 105.973 134.312 105.802 134.77 104.067C135.054 103.021 135.176 101.91 135.043 101.596C134.888 101.241 135.047 101.031 135.486 101.031C135.866 101.031 136.05 100.915 135.899 100.773C135.748 100.637 135.807 100.33 136.036 100.085C136.261 99.8361 136.5 99.0092 136.563 98.2437C136.622 97.4749 136.81 96.8483 136.984 96.8483C137.157 96.8483 137.305 96.6093 137.305 96.3186C137.305 96.0182 137.925 95.6823 138.74 95.5434C140.604 95.2301 142.216 94.0576 143.113 92.3715C143.91 90.876 144.091 90.7662 147.416 89.7875C149.74 89.106 153.689 86.4413 153.725 85.5304C153.736 85.2688 153.283 85.0556 152.718 85.0556C152.153 85.0556 151.574 84.8941 151.449 84.7068C151.316 84.513 151.917 84.4484 152.84 84.5582L154.463 84.7584L154.172 83.0013C154.01 82.0355 153.921 81.2474 153.973 81.2474C154.028 81.2474 153.301 80.5627 152.367 79.7196C150.486 78.0206 150.438 77.2132 152.312 78.7829L153.493 79.7713L153.851 78.8992C154.323 77.7461 153.157 76.9386 151.463 77.2358C150.253 77.4489 150.242 77.436 150.998 76.6834C151.7 75.9857 151.836 75.9696 152.497 76.509C153.548 77.3682 155.43 76.874 155.43 75.7338C155.43 75.1783 155.117 74.7971 154.545 74.6582C154.054 74.5452 153.784 74.2706 153.939 74.0445C154.135 73.757 154.463 73.7571 155.046 74.0381C155.5 74.2577 156.05 74.3288 156.279 74.206C156.995 73.8055 156.729 72.8107 155.851 72.6039C154.855 72.3714 154.744 71.8061 155.637 71.4961C156.419 71.2247 156.515 68.7086 155.744 68.6633C155.323 68.6375 155.323 68.5923 155.744 68.4372C156.032 68.3339 156.271 67.6653 156.271 66.9514C156.271 66.0503 156.467 65.6498 156.906 65.6498C157.349 65.6498 157.533 65.2492 157.533 64.319C157.533 63.2014 157.382 62.985 156.585 62.9624C156.065 62.9462 155.873 62.8429 156.164 62.7363C157.009 62.4294 156.781 61.6026 155.659 60.9372C152.836 59.2124 151.412 57.494 147.065 56.3118H350.735V92.5589C350.43 92.3709 350.088 92.233 349.727 92.1519C348.971 91.9941 348.267 91.6845 347.672 91.2475C347.225 90.8811 346.764 90.5288 346.288 90.1913C345.392 89.5527 344.504 88.9055 343.624 88.2501C340.834 86.1829 339.742 85.6984 337.724 85.6338C336.782 85.603 335.847 85.4861 334.934 85.2849C334.008 85.0427 333.79 85.146 333.58 85.8728C333.439 86.3476 333.528 86.9387 333.757 87.1906C334.462 87.9561 333.307 88.2727 332.521 87.5265C332.004 87.0356 331.96 86.8256 332.351 86.6932C333.104 86.4413 332.997 85.4561 332.189 85.1751C331.757 85.0265 331.248 85.2494 330.816 85.7565C330.196 86.4994 329.997 86.5285 328.528 86.1215C327.399 85.8082 326.694 85.792 326.203 86.0634C325.207 86.6157 324.443 86.283 324.443 85.2978C324.443 84.8392 324.133 84.064 323.753 83.573C323.107 82.7429 322.842 82.7009 319.978 82.8624C318.281 82.9625 316.916 82.9335 316.93 82.8075C317.03 82.0258 316.727 81.6835 315.753 81.4638C315.148 81.3249 314.761 81.1182 314.897 80.9955C315.034 80.876 314.964 80.4787 314.75 80.1137C314.255 79.2803 306.233 77.4974 305.986 78.1628C305.897 78.3986 305.466 78.5924 305.023 78.5924C304.58 78.5924 304.215 78.8475 304.215 79.1608C304.215 79.4741 304.414 79.7261 304.665 79.7261C304.912 79.7261 305.049 80.0329 304.971 80.3979C304.894 80.7662 304.65 81.0342 304.421 80.9955C304.193 80.96 303.691 81.1828 303.311 81.4961C302.798 81.9128 302.536 81.9451 302.311 81.6189C302.13 81.3572 301.51 81.2668 300.798 81.3928C299.86 81.564 299.491 81.4412 299.126 80.8211C298.569 79.8811 298.089 80.23 297.606 81.9322C297.281 83.0885 297.196 83.1434 296.429 82.6428C295.742 82.1841 295.617 81.7061 295.702 79.7196C295.813 77.155 295.134 75.9308 293.591 75.9308C293.148 75.9308 292.226 75.666 291.536 75.343C290.056 74.6518 289.458 74.8714 289.458 76.1182C289.458 77.3004 288.89 77.5814 287.082 77.2745C286.086 77.1066 285.669 76.8546 285.813 76.5155C286.1 75.8339 282.957 75.1007 281.654 75.5465C280.864 75.821 280.647 75.737 280.436 75.0523C280.226 74.3546 280.123 74.3094 279.768 74.7907C279.47 75.1944 279.252 75.2332 279.027 74.9263C278.853 74.6905 278.333 74.4321 277.879 74.3546C277.093 74.2189 277.093 74.1802 277.791 73.644C280.898 71.2538 281.13 70.9114 280.931 69.0445C280.687 66.7641 279.071 65.3074 276.757 65.2912C275.791 65.2848 275.126 65.0651 274.971 64.7034C274.839 64.39 274.455 64.1316 274.123 64.1316C273.735 64.1316 273.595 63.8732 273.732 63.4049C273.994 62.494 272.569 61.538 271.444 61.6865C271.282 61.7049 271.126 61.7486 270.983 61.8157C269.861 62.3584 268.248 64.7744 268.547 65.4689C268.713 65.8726 268.488 66.0373 267.746 66.0373C266.595 66.0373 266.429 66.3894 267.23 67.1355C267.658 67.5264 267.555 67.6039 266.702 67.5296C266.094 67.4841 265.481 67.5523 264.905 67.7299C264.689 67.8112 264.452 67.8409 264.219 67.8159C263.986 67.791 263.764 67.7122 263.577 67.5877C262.905 67.0839 260.809 67.4036 260.167 68.111C259.935 68.3662 259.023 68.7925 258.138 69.0574C257.252 69.319 256.425 69.7777 256.3 70.0716C256.175 70.3623 255.699 70.6013 255.237 70.6013C254.658 70.6013 254.47 70.7758 254.636 71.1666C254.783 71.5154 254.636 71.7383 254.259 71.7383C253.555 71.7383 253.389 73.4631 254.06 73.8378C254.986 74.3546 254.366 74.7131 252.097 74.9683C248.492 75.3753 248.451 75.3947 248.776 77.3553C248.961 78.4696 249.44 79.3773 250.149 79.9716C250.743 80.469 251.023 80.8727 250.769 80.8727C250.514 80.8727 249.791 80.4399 249.164 79.9134C247.972 78.9154 246.706 78.925 245.817 79.9328C245.293 80.5271 244.529 80.1686 244.588 79.3514C244.654 78.4728 243.946 77.3973 243.477 77.6589C243.245 77.7881 243.119 78.1886 243.182 78.5439C243.248 78.8992 242.879 79.6744 242.363 80.2687C241.846 80.8598 241.551 81.5155 241.699 81.7319C241.857 81.958 241.761 82.0129 241.477 81.8547C241.138 81.6673 241.119 81.3702 241.415 80.8727C241.647 80.4819 241.835 79.6324 241.835 78.9929C241.835 77.9754 241.688 77.8301 240.68 77.8204C239.706 77.8107 239.632 77.7429 240.237 77.4231C241.049 76.9935 240.795 75.9244 239.88 75.9244C239.547 75.9244 239.149 76.2215 238.994 76.5898C238.8 77.0178 238.523 77.4134 238.175 77.759C237.831 78.1298 237.636 78.5896 237.621 79.0672C237.621 79.5129 237.105 80.5465 236.485 81.3605C235.529 82.6008 235.433 82.9496 235.861 83.5666C236.159 84.0961 236.242 84.6987 236.097 85.2752C235.92 85.9212 236.046 86.3896 236.466 86.6964C236.908 87.0719 237.233 87.54 237.411 88.0563C237.699 88.9316 237.654 88.9187 236.075 87.7752C234.943 87.0113 233.685 86.4015 232.345 85.9664C231.19 85.6176 229.832 85.0007 229.334 84.5969C228.739 84.1124 228.337 83.9994 228.149 84.2739C227.732 84.8812 228.311 86.1958 228.99 86.1958C229.651 86.1958 230.562 87.4878 230.16 87.8528C230.02 87.982 229.481 87.9884 228.961 87.8689C228.444 87.7526 227.891 87.8463 227.736 88.0692C227.581 88.2953 227.027 88.4794 226.507 88.4794C225.958 88.4902 225.429 88.6594 225.001 88.9607C224.54 89.3483 224.474 89.274 224.658 88.5731C224.832 87.9271 224.714 87.7203 224.145 87.7203C223.651 87.7551 223.192 87.9594 222.869 88.2888C222.581 88.6021 222.168 88.8605 221.961 88.8605C221.19 88.8605 218.245 90.8664 218.002 91.5608C217.721 92.3619 216.762 92.5266 216.297 91.8483C216.131 91.606 216.326 91.1926 216.732 90.9277C218.212 89.949 216.758 88.5052 214.278 88.4859C213.706 88.4826 213.607 88.615 213.909 88.9607C214.134 89.2191 214.43 90.3496 214.57 91.4671C214.813 93.4245 214.791 93.4923 213.891 93.2921C212.636 93.0143 210.437 94.9652 210.758 96.0764C211.027 96.9969 210.312 97.0938 209.138 96.2928C207.983 95.5046 207.692 95.5757 207.692 96.6416C207.692 97.1552 208.02 97.7398 208.426 97.9562C209.053 98.2857 209.072 98.3503 208.5 98.36C207.415 98.3761 206.301 96.9646 206.341 95.6209C206.367 94.9426 206.057 94.0447 205.666 93.628C205.164 93.0951 205.142 92.9917 205.585 93.2792C205.932 93.5053 207.116 93.909 208.212 94.1771C209.931 94.597 210.352 94.5809 211.216 94.0705C213.083 92.9659 212.876 90.9503 210.773 89.7552C209.879 89.2214 209.021 88.6422 208.205 88.0207C207.444 87.4361 206.374 86.9613 205.828 86.9613C205.179 86.9613 204.758 86.6803 204.611 86.157C204.411 85.4755 204.182 85.4077 202.98 85.6402C201.614 85.9083 201.599 85.8922 202.315 85.1686C203.024 84.458 203.009 84.3902 201.991 83.5246C200.961 82.6525 200.371 82.5717 197.253 82.8721C196.725 82.9206 196.349 83.0691 196.408 83.1951C196.703 83.7959 195.256 84.7132 194.341 84.5097C193.802 84.387 193.363 84.429 193.363 84.6066C193.363 84.7875 192.71 85.2526 191.913 85.6402C191.116 86.0278 190.216 86.7869 189.91 87.3198C189.603 87.8592 189.024 88.6215 188.618 89.0285C188.212 89.4322 187.88 89.991 187.88 90.2656C187.88 90.5401 187.721 90.7598 187.533 90.7598C187.216 90.7598 185.172 94.0608 185.149 94.6132C185.12 95.369 182.216 98.7346 180.758 99.7036C179.817 100.333 179.046 101.07 179.042 101.341C179.035 101.616 178.843 101.732 178.614 101.603C178.382 101.474 178.168 101.593 178.142 101.865C178.046 103.043 178.138 104.762 178.378 106.335C178.821 109.21 179.899 109.71 182.079 108.053L183.36 107.084L184.164 109.235C184.921 111.261 184.928 111.416 184.249 111.865C183.821 112.149 183.637 112.591 183.795 112.963C184.079 113.641 185.349 113.835 185.349 113.208C185.349 112.998 185.736 112.821 186.197 112.821C186.662 112.821 187.039 112.659 187.039 112.449C187.039 112.239 187.4 112.062 187.851 112.062C188.522 112.062 188.769 111.642 189.175 109.784C189.47 108.438 189.895 107.501 190.208 107.501C191.426 107.501 191.566 105.505 190.445 104.219C189.297 102.901 189.917 101.28 192.341 99.2676C193.411 98.3826 194.168 97.4911 194.028 97.2844C193.611 96.6771 194.692 94.9491 195.481 94.9491C195.88 94.9491 196.43 95.1946 196.699 95.4917C197.234 96.0699 197.131 96.2282 194.319 99.1319C193.094 100.392 192.969 100.734 193.135 102.407L193.341 104.51C193.352 104.642 193.825 105.027 194.389 105.359C195.33 105.912 195.563 105.908 197.271 105.34C199.208 104.694 201.341 104.897 200.09 105.615C199.751 105.808 198.762 105.97 197.895 105.973C196.88 105.98 196.005 106.254 195.467 106.739C195.005 107.158 194.459 107.501 194.253 107.501C193.884 107.501 193.522 108.693 193.083 111.377C192.873 112.672 191.249 114.671 191.249 113.638C191.249 113.121 189.577 113.402 187.795 114.21C187.065 114.545 186.566 114.587 186.397 114.339C186.253 114.129 185.629 113.993 184.998 114.035C182.976 114.174 182.245 113.286 183.411 112.094C184.002 111.483 183.876 109.025 183.253 109.025C183.076 109.025 182.434 109.374 181.825 109.81C180.718 110.595 180.212 112.821 181.138 112.821C181.371 112.821 181.552 113.308 181.552 113.899C181.552 114.823 181.338 115.03 179.976 115.33C178.803 115.592 178.234 115.996 177.762 116.894C177.415 117.559 176.685 118.289 176.138 118.518C175.172 118.922 175.146 118.9 175.408 117.64C175.614 116.661 175.511 116.28 175.024 116.109C174.666 115.986 174.186 115.495 173.947 115.02C173.413 113.928 172.731 112.896 171.917 111.945C171.522 111.509 171.5 111.154 171.836 110.592C172.493 109.484 172.386 109.025 171.478 109.025C170.88 109.025 170.736 108.822 170.899 108.26C171.079 107.643 170.91 107.501 170.028 107.501C169.419 107.501 168.777 107.792 168.567 108.166C167.976 109.2 167.633 111.303 168.046 111.303C168.249 111.303 168.305 111.658 168.179 112.094C168.024 112.63 167.711 112.83 167.198 112.708C166.375 112.514 164.921 113.66 165.419 114.109C165.585 114.261 165.423 114.281 165.054 114.155C164.227 113.867 163.762 114.823 164.113 116.093C164.26 116.609 164.187 117.013 163.943 117.013C163.707 117.013 163.611 117.352 163.736 117.772C163.995 118.664 164.172 118.683 166.389 118.056C167.57 117.727 168.094 117.362 168.139 116.826C168.175 116.406 168.22 115.87 168.246 115.637C168.268 115.405 168.563 114.927 168.888 114.571C169.412 114 169.544 113.993 170.105 114.504C170.67 115.011 170.629 115.159 169.722 115.841C169.006 116.38 168.884 116.616 169.33 116.632C169.821 116.655 169.788 116.781 169.164 117.204C168.556 117.624 168.478 117.872 168.836 118.263C169.194 118.651 169.139 118.993 168.615 119.665C167.939 120.534 167.95 120.55 168.947 120.292C170.755 119.823 174.541 119.303 174.751 119.497C175.186 119.888 173.293 120.757 172.419 120.566C171.644 120.398 171.533 120.498 171.733 121.183C171.936 121.884 171.832 121.965 170.972 121.781C170.419 121.664 169.703 121.729 169.378 121.916C168.589 122.381 169.105 123.48 170.116 123.48C171.223 123.48 172.282 125.072 172.282 126.748V128.144L169.186 127.963C167.282 127.853 165.858 127.944 165.496 128.199C165.091 128.489 164.917 129.42 164.943 131.274C165.002 135.738 164.973 135.657 166.345 135.657C168.526 135.657 168.264 137.101 165.692 139.294C164.781 140.069 164.279 140.86 164.279 141.503C164.279 142.052 163.884 142.798 163.408 143.167C161.164 144.895 159.98 146.141 158.759 148.066C157.515 150.033 157.467 150.253 157.921 151.881C158.43 153.709 158.238 154.846 157.242 155.873C156.832 156.293 156.777 156.584 157.076 156.749C157.323 156.888 157.533 157.298 157.533 157.666C157.533 158.031 158.212 158.916 159.046 159.636C159.88 160.36 160.714 161.306 160.902 161.736C161.338 162.737 165.559 165.379 166.622 165.318C167.068 165.289 168.574 165.221 169.965 165.16C171.356 165.101 173.227 164.772 174.124 164.426C176.423 163.548 177.622 163.635 178.419 164.736C178.939 165.454 179.367 165.631 180.227 165.492C181.947 165.208 182.511 165.751 182.175 167.366L181.887 168.755L181.581 169.63L181.489 169.636C181.507 169.659 181.552 169.672 181.552 169.701C181.552 170.011 182.216 170.922 183.017 171.723C184.485 173.193 185.352 174.72 185.57 176.222C185.637 176.675 185.825 177.414 185.983 177.87C186.071 178.118 186.086 178.381 186.029 178.636C185.972 178.891 185.843 179.129 185.655 179.33C184.341 180.702 183.581 184.401 184.507 184.918C185.33 185.373 186.334 187.611 186.884 190.205C187.19 191.649 187.707 193.102 188.031 193.435C189.05 194.482 190.338 197.246 190.135 197.944C189.88 198.836 190.854 199.973 191.891 199.998C194.09 200.053 198.88 199.191 199.788 198.574C201.286 197.55 204.315 193.606 204.607 192.285C204.762 191.604 205.249 190.967 205.813 190.735C206.869 190.302 207.337 188.412 206.751 186.975C206.481 186.323 206.666 185.903 207.577 185.063C208.219 184.472 208.961 183.981 209.219 183.974C209.478 183.968 210.164 183.619 210.751 183.202C211.71 182.524 211.821 182.198 211.758 180.066C211.721 178.758 211.544 177.489 211.374 177.246C211.201 177.001 210.968 176.003 210.858 175.021C210.644 173.109 211.127 171.985 212.928 170.176L213.972 169.126L214.662 168.755L216.795 167.059C220.393 164.22 223.267 157.95 220.621 158.713C219.603 158.972 218.577 159.209 217.544 159.423C215.633 159.824 215.337 159.804 214.935 159.223C214.54 158.651 214.791 158.48 216.847 157.899C218.027 157.572 219.181 157.176 220.3 156.713C220.898 156.432 221.581 156.196 221.821 156.196C222.057 156.196 222.577 155.847 222.976 155.431C223.374 155.011 224.031 154.672 224.437 154.672C225.186 154.672 227.92 152.798 227.92 152.288C227.92 152.136 228.3 151.674 228.762 151.254C230.094 150.053 229.854 148.832 228.134 148.089C227.322 147.74 226.651 147.185 226.651 146.839C226.651 146.329 226.773 146.3 227.286 146.684C227.662 146.965 229.411 147.178 231.666 147.22C235.023 147.278 235.525 147.382 236.503 148.221C237.108 148.738 237.606 149.352 237.61 149.578C237.629 150.363 239.26 151.351 240.26 151.177C241.138 151.025 241.241 151.154 241.3 152.45C241.367 153.929 244.462 160.88 245.507 161.897C246.023 162.401 246.219 162.343 247.145 161.38C248.296 160.185 248.916 160.244 248.178 161.481C247.699 162.291 247.983 164.184 248.584 164.184C250.348 164.184 250.946 161.758 249.499 160.453C248.983 159.988 248.724 159.161 248.706 157.882C248.676 156.045 248.724 155.97 250.724 154.72C251.857 154.016 252.791 153.293 252.791 153.115C252.791 152.937 253.355 152.53 254.053 152.204C254.747 151.881 255.322 151.393 255.322 151.128C255.322 150.864 255.913 150.612 256.654 150.563C257.392 150.508 258.245 150.285 258.547 150.056C258.961 149.749 259.178 149.817 259.396 150.35C259.555 150.738 260.119 151.59 260.658 152.236C261.2 152.889 261.636 153.948 261.636 154.614C261.636 155.55 261.82 155.815 262.459 155.815C262.909 155.815 263.392 155.644 263.536 155.437C263.953 154.827 264.518 154.995 264.805 155.815C264.953 156.235 265.359 156.839 265.728 157.169C266.174 157.572 266.366 158.409 266.333 159.788C266.296 161.161 266.484 161.965 266.909 162.285C267.256 162.543 267.746 163.435 267.994 164.271C268.503 165.974 270.193 167.608 271.447 167.608C272.119 167.608 272.219 167.446 271.975 166.755C271.768 166.121 271.596 165.479 271.459 164.83C271.259 164.142 270.789 163.538 270.13 163.125C269.518 162.776 268.872 162.317 268.702 162.104C268.233 161.516 268.318 158.096 268.802 158.096C269.034 158.096 269.23 158.354 269.23 158.667C269.23 158.981 269.488 159.239 269.813 159.239C270.138 159.239 270.51 159.497 270.643 159.814C270.716 159.971 270.838 160.108 270.995 160.208C271.153 160.308 271.339 160.367 271.532 160.379C271.901 160.379 272.174 160.709 272.174 161.138C272.174 162.081 273.208 162.136 273.946 161.235C274.248 160.864 275.016 160.353 275.65 160.098C276.669 159.694 276.813 159.43 276.813 157.908C276.813 156.416 276.577 155.954 275.101 154.51C273.558 152.999 273.447 152.756 273.946 152.03C274.499 151.222 276.215 150.586 276.687 151.009C276.824 151.135 276.492 151.552 275.957 151.946C275.333 152.398 275.086 152.879 275.256 153.283C275.842 154.656 277.58 153.693 277.743 151.907C277.82 151.051 278.16 150.841 280.381 150.289C281.783 149.937 283.554 149.223 284.315 148.706C286.314 147.346 289.647 142.501 288.58 142.501C288.311 142.501 288.296 142.275 288.543 141.871C288.831 141.413 288.591 140.721 287.695 139.352C286.514 137.537 286.499 137.433 287.226 136.823C287.665 136.458 288.169 136.157 288.717 135.931C289.123 135.792 289.458 135.524 289.458 135.334C289.458 134.84 287.23 134.517 286.676 134.93C286.381 135.15 285.975 135.027 285.554 134.607C284.942 133.993 285.008 133.861 286.54 132.869L288.196 131.797L287.761 132.824C287.2 134.158 287.499 134.387 288.802 133.615C289.381 133.273 290.241 132.992 290.72 132.992C291.466 132.992 291.532 133.102 291.141 133.758C290.602 134.668 290.979 135.411 291.835 135.114C292.174 134.998 292.414 135.111 292.377 135.373C292.339 135.999 292.334 136.626 292.362 137.252L292.414 138.657L293.99 138.166C295.337 137.747 295.591 137.488 295.709 136.416C295.798 135.573 295.523 134.732 294.938 134.058L294.038 132.95L295.123 132.185C295.72 131.761 296.2 131.225 296.2 130.996C296.2 130.279 297.517 129.229 298.141 129.445C299.359 129.865 300.691 129.161 302.325 127.23C305.226 123.793 306.322 121.784 306.322 119.881C306.322 119.142 306.525 118.531 306.776 118.531C307.093 118.531 307.167 119.962 307.012 123.144C306.823 127.101 306.669 127.86 305.949 128.46C305.311 128.997 305.115 129.662 305.115 131.245C305.115 133.754 304.517 134.898 303.207 134.898C302.58 134.898 302.071 135.23 301.761 135.844C301.392 136.577 300.967 136.797 299.905 136.797C298.923 136.797 298.063 137.178 296.938 138.112C295.388 139.394 294.945 140.221 295.787 140.221C296.019 140.221 296.2 140.557 296.2 140.964C296.2 142.094 296.99 142.269 297.499 141.261C297.894 140.486 299.702 139.471 301.052 139.268C301.558 139.142 302.05 138.98 302.525 138.783C303.104 138.551 304.145 138.215 304.827 138.031C305.853 137.753 306.181 137.356 306.676 135.815C307.384 133.619 307.488 132.004 307.012 130.789C306.705 130.004 306.772 129.943 307.713 130.156C308.311 130.292 308.886 130.205 309.06 129.956C309.222 129.717 309.853 129.349 310.462 129.139C311.281 128.858 311.418 128.686 310.993 128.447C310.68 128.273 310.569 127.921 310.742 127.666C310.967 127.336 310.823 127.275 310.244 127.44C309.296 127.711 307.314 126.077 307.776 125.405C307.93 125.179 308.233 125.082 308.44 125.198C308.65 125.318 308.702 124.533 308.55 123.392C308.311 121.538 308.347 121.429 309.004 121.92C310.06 122.704 310.2 122.272 309.488 120.45C309.121 119.477 308.905 118.466 308.846 117.443C308.835 115.511 308.429 114.355 307.761 114.355C307.429 114.355 307.292 114.587 307.432 114.92C307.753 115.673 306.591 115.673 305.897 114.92C305.296 114.264 303.794 114.151 303.794 114.759C303.794 114.985 303.495 114.894 303.13 114.565C302.765 114.239 302.148 113.967 301.761 113.961C301.241 113.954 301.392 113.67 302.351 112.911C303.071 112.339 304.665 110.812 305.894 109.503C308.108 107.146 308.137 107.133 310.274 107.168C311.454 107.191 313.144 107.084 314.012 106.932C315.322 106.706 315.598 106.764 315.598 107.281C315.598 107.753 315.879 107.863 316.753 107.733C317.45 107.636 318.152 107.571 318.857 107.54C319.816 107.507 320.192 106.545 319.351 106.293C319.1 106.219 319.381 105.692 319.964 105.12C320.547 104.552 321.181 103.841 321.366 103.547C321.698 103.021 322.414 102.808 323.517 102.901C323.82 102.927 323.952 103.111 323.812 103.321C323.665 103.534 323.668 104.064 323.823 104.5C324.096 105.275 324.122 105.275 325.244 104.306C325.871 103.764 326.635 103.321 326.941 103.321C327.447 103.321 326.565 104.271 322.44 108.186C321.687 108.896 321.074 109.617 321.074 109.778C321.074 109.94 320.779 110.282 320.436 110.544C319.679 111.109 319.609 113.631 320.255 116.787C320.65 118.712 320.624 119.045 319.993 119.458C319.598 119.72 319.355 120.146 319.451 120.405C319.694 121.07 322.192 118.996 322.735 117.679C322.967 117.104 323.436 116.639 323.775 116.639C324.13 116.639 324.447 116.196 324.524 115.586C324.602 114.965 324.912 114.542 325.288 114.542C325.679 114.542 325.997 114.064 326.13 113.289C326.244 112.601 326.532 112.042 326.764 112.052C327.303 112.068 327.355 109.374 326.827 108.731C326.609 108.467 326.55 108.137 326.698 108.005C326.845 107.869 326.971 107.966 326.971 108.215C326.971 108.554 327.189 108.57 327.812 108.266C328.801 107.788 328.993 106.548 328.026 106.884C327.679 107.003 327.392 106.936 327.392 106.735C327.392 106.532 327.775 106.367 328.24 106.367C328.705 106.367 329.089 106.147 329.089 105.886C329.093 105.563 329.237 105.595 329.539 105.983C329.879 106.416 330.041 106.438 330.203 106.073C330.321 105.812 330.794 105.414 331.259 105.191C331.908 104.875 332.273 104.923 332.864 105.408C333.583 105.996 333.731 105.938 335.255 104.555C336.148 103.748 337.163 102.959 337.51 102.804C337.856 102.653 338.617 102.281 339.196 101.984C339.772 101.687 340.672 101.542 341.192 101.661C342.439 101.942 342.794 101.093 342.155 99.3451C341.712 98.1371 341.76 97.8787 342.642 96.8742C343.355 96.057 343.993 95.7501 344.989 95.734C345.849 95.7243 346.366 95.8987 346.366 96.212C346.366 96.9937 348.812 98.4472 349.698 98.192C350.126 98.0693 350.473 97.7624 350.461 97.5072C350.432 96.6933 350.52 96.2056 350.731 95.9439V98.8477C350.085 99.0253 350.078 99.5066 350.731 99.9459V266.688H328.443C328.952 266.462 329.502 265.354 329.502 264.996C329.502 264.624 329.79 264.22 330.141 264.098C330.487 263.978 330.775 263.678 330.775 263.439C330.775 263.197 331.432 262.337 332.244 261.527C333.225 260.548 333.72 259.673 333.72 258.93C333.72 258.316 333.904 257.709 334.126 257.586C334.672 257.282 333.949 255.645 333.329 255.774C333.067 255.829 332.259 255.38 331.543 254.779C330.417 253.826 330.008 253.713 328.406 253.875C327.251 253.991 326.558 253.907 326.558 253.658C326.558 253.432 326.207 253.151 325.779 253.029C325.351 252.906 324.798 252.408 324.55 251.921C324.089 251.003 321.078 249.149 321.078 249.779C321.078 250.312 319.679 249.744 319.048 248.952C318.624 248.416 317.934 248.261 315.997 248.261C314.617 248.261 313.491 248.125 313.491 247.961C313.491 247.799 312.923 247.47 312.229 247.234C311.377 246.943 311.037 246.617 311.2 246.236C311.502 245.525 311.126 245.315 309.045 245.054C306.573 244.744 303.731 244.178 302.48 243.745C301.606 243.445 301.41 243.174 301.569 242.434C301.717 241.73 301.584 241.339 301.333 241.294C301.082 241.245 300.713 241.549 300.403 242.221C299.886 243.351 299.779 243.384 297.849 243.216C295.912 243.048 295.82 243.087 295.565 244.127C295.296 245.241 294.355 245.593 293.982 244.718C293.661 243.959 290.993 243.335 290.071 243.804C289.462 244.11 289.178 244.014 288.702 243.368C287.868 242.237 287.355 242.347 287.355 243.652C287.355 244.259 287.097 244.847 286.768 244.96C285.997 245.228 284.34 244.824 283.658 244.207C283.362 243.939 282.85 243.82 282.521 243.933C282.193 244.046 281.684 243.781 281.381 243.342C280.661 242.302 280.237 242.34 278.112 243.629C276.385 244.676 276.296 244.685 274.923 244.101C274.145 243.768 273.281 243.129 273.005 242.676C272.359 241.62 270.85 241.242 270.37 242.014C270.086 242.473 269.879 242.499 269.4 242.14C268.92 241.785 268.632 241.817 268.023 242.315C267.189 242.996 266.067 242.818 265.698 241.946C265.569 241.649 264.986 241.41 264.4 241.41C263.503 241.41 263.333 241.585 263.333 242.502C263.333 243.926 262.743 244.298 260.075 244.569C258.156 244.763 257.787 244.689 257.248 243.994C256.676 243.261 256.529 243.245 255.245 243.726C253.514 244.375 252.366 244.24 251.47 243.293C250.857 242.647 250.717 242.634 250.248 243.141C249.82 243.607 249.828 243.904 250.271 244.65C250.684 245.348 250.695 245.7 250.333 246.094C250.068 246.381 249.964 246.72 250.105 246.846C250.245 246.975 249.883 247.189 249.3 247.321C248.012 247.612 246.282 249.188 246.651 249.731C246.798 249.944 246.54 250.306 246.086 250.525C245.392 250.861 245.023 250.69 243.769 249.492C242.44 248.222 242.178 248.122 241.415 248.555C240.658 248.975 240.503 248.923 240.101 248.122C239.688 247.302 239.297 247.192 235.998 246.959C231.522 246.643 227.481 245.703 227.762 245.041C228.046 244.375 225.976 243.242 224.404 243.206C222.596 243.161 220.518 244.123 220.669 244.934C220.758 245.399 220.596 245.516 220.094 245.341C219.658 245.189 219.238 245.344 218.994 245.738C218.776 246.09 218.415 246.271 218.186 246.142C217.662 245.851 214.374 247.227 213.607 248.061C213.289 248.406 212.5 248.933 211.865 249.23C211.227 249.53 210.64 250.157 210.566 250.632C210.374 251.833 208.714 251.601 207.05 250.147C205.345 248.655 204.433 248.697 204.695 250.244C204.718 250.396 204.216 250.428 203.581 250.315C202.695 250.154 202.179 250.335 201.404 251.081C200.843 251.62 199.946 252.063 199.419 252.063C198.895 252.063 198.349 252.24 198.201 252.457C197.861 252.951 195.29 252.806 193.363 252.189C192.552 251.93 191.186 251.711 190.33 251.704C189.319 251.691 188.633 251.459 188.375 251.042C188.002 250.441 187.906 250.441 186.876 251.049C186.271 251.404 185.769 251.824 185.769 251.976C185.769 252.127 183.474 252.247 180.666 252.237C176.153 252.221 175.5 252.137 174.983 251.497C174.655 251.1 174.389 250.551 174.389 250.277C174.389 250.002 174.013 249.779 173.541 249.779C172.854 249.779 172.699 249.992 172.799 250.826C172.899 251.688 172.659 251.988 171.441 252.538C170.629 252.903 169.364 253.203 168.622 253.203C167.884 253.203 167.168 253.355 167.039 253.545C166.91 253.736 166.46 253.807 166.032 253.707C165.131 253.494 163.05 254.957 162.194 256.404C161.873 256.947 161.308 257.395 160.947 257.399C160.578 257.405 159.799 257.738 159.22 258.145C158.637 258.555 157.781 258.904 157.319 258.92C156.722 258.933 156.113 259.602 155.231 261.21C154.545 262.457 153.821 263.513 153.629 263.474C153.076 263.368 150.375 265.435 149.497 266.688H117.541C117.559 265.556 117.465 264.424 117.261 263.306C117.039 262.231 117.132 261.989 117.873 261.775C118.604 261.565 118.678 261.388 118.309 260.768C117.508 259.411 116.881 246.982 117.504 244.792C118.394 241.662 119.515 239.311 120.172 239.194C121.073 239.033 121.076 237.986 120.18 237.986C119.442 237.986 116.527 239.466 116.298 239.96C116.25 240.048 116.175 240.123 116.082 240.177C115.989 240.231 115.882 240.262 115.77 240.267C115.357 240.267 113.7 241.656 113.7 241.998C113.7 242.111 113.32 242.57 112.859 243.019C112.394 243.468 112.017 244.052 112.017 244.32C112.017 244.585 111.63 244.995 111.161 245.225C110.412 245.583 110.338 245.864 110.582 247.531C110.822 249.169 110.733 249.54 109.969 250.183C109.084 250.926 109.076 250.926 108.567 250.189C108.15 249.585 107.892 249.53 107.183 249.866C106.707 250.092 106.036 250.564 105.685 250.913C105.338 251.262 104.704 251.656 104.272 251.801C103.696 251.995 103.56 252.305 103.744 252.974C103.929 253.623 103.785 253.959 103.261 254.149C102.626 254.382 102.671 254.466 103.582 254.795L104.637 255.183L103.689 255.58C103.165 255.8 102.741 256.181 102.741 256.42C102.741 257.134 103.73 258.074 104.63 258.216C105.228 258.31 105.538 258.746 105.722 259.766C105.999 261.304 105.837 261.523 105.095 260.606C104.74 260.238 104.236 260.003 103.689 259.95C103.176 259.915 102.667 259.666 102.552 259.398C102.442 259.127 101.855 258.907 101.254 258.907C100.656 258.907 100.265 259.062 100.39 259.249C101.047 260.202 96.5119 260.328 93.6005 259.434C91.4862 258.788 89.8552 258.71 86.6855 259.111C84.8183 259.346 84.7298 259.317 84.2095 258.177C83.8405 257.379 83.5084 257.108 83.1874 257.344C82.9291 257.534 82.0324 257.622 81.1948 257.538C80.1772 257.476 79.1567 257.612 78.2059 257.935C76.7372 258.49 76.5675 259.001 76.9808 261.669C77.0029 261.827 77.4568 261.959 77.9771 261.963C78.6155 261.966 78.7483 262.063 78.3941 262.266C78.0251 262.479 77.9365 263.109 78.1357 264.353C78.2686 265.177 78.2723 266.087 78.1726 266.688H76.3387C76.062 266.527 75.5269 265.39 75.6302 265.018C75.8885 264.124 75.2428 263.765 73.9107 264.065C73.265 264.214 72.8148 264.621 72.7336 265.125L72.6044 265.949L71.7853 265.099C71.2945 264.592 70.2428 264.159 69.1506 264.011C68.1543 263.875 67.3314 263.597 67.3314 263.387C67.3314 263.161 66.7373 263.109 65.8259 263.264C64.7042 263.455 63.3056 263.216 60.3315 262.324L56.35 261.116L55.5234 262.063C55.0437 262.612 54.0474 263.113 53.1249 263.271C52.2578 263.416 50.7744 263.956 49.8224 264.459C48.7966 265.002 47.4054 265.377 46.4313 265.38C45.5641 265.383 44.0106 266.417 43.5715 266.688H18.2655V115.201C18.5607 114.943 18.6899 114.684 18.4943 114.578C18.4316 114.542 18.3467 114.545 18.2655 114.529V106.164C18.5312 106.054 18.712 105.831 18.7895 105.476C18.8633 105.14 18.6493 104.991 18.2655 104.917V103.502C18.3577 103.58 18.3504 103.622 18.4685 103.715C19.022 104.148 19.4758 104.875 19.4795 105.33C19.4906 105.989 19.7378 106.167 20.6419 106.154C21.6308 106.144 21.771 106.264 21.6123 107.052C21.4463 107.885 21.5385 107.95 22.6898 107.743C23.5865 107.582 24.0219 107.672 24.1916 108.066C24.3651 108.473 24.6234 108.528 25.1806 108.26C25.8152 107.953 25.9075 108.024 25.723 108.651C25.5016 109.426 23.1658 111.687 22.5902 111.687C22.0293 111.687 19.0736 113.625 19.0736 113.993C19.0736 114.458 19.3983 114.423 21.1843 113.751C22.0109 113.438 22.8706 113.283 23.092 113.409C23.3134 113.531 23.4979 113.354 23.4979 113.014C23.4979 112.675 23.6529 112.488 23.8411 112.595C24.0256 112.698 24.9665 112.142 25.9186 111.361C28.9517 108.854 28.8337 108.89 28.7008 110.388L28.5864 111.726L29.9407 110.699C31.3429 109.633 31.9222 107.885 30.8705 107.885C30.5458 107.885 30.0846 108.176 29.8484 108.544C29.6122 108.912 29.413 109.013 29.4056 108.764C29.4127 108.624 29.4563 108.487 29.533 108.364C29.6097 108.24 29.7176 108.134 29.8484 108.053C30.0956 107.914 30.1879 107.549 30.0551 107.239C29.9222 106.926 30.1953 106.235 30.6602 105.699L31.5052 104.736L31.2395 105.925C30.9333 107.301 31.5606 107.498 33.1178 106.516C33.6417 106.183 34.3318 105.999 34.6491 106.112C34.9701 106.222 35.4941 106.034 35.8004 105.699C36.2395 105.22 36.2432 105.059 35.8299 104.933C35.5384 104.846 35.2985 104.61 35.2985 104.416C35.2985 104.222 36.055 104.497 36.9775 105.02C37.9295 105.563 39.2874 105.98 40.1103 105.98C41.1177 105.98 42.1472 106.38 43.4903 107.304C44.5568 108.037 45.7781 108.644 46.2209 108.644C46.7154 108.644 47.1102 108.996 47.28 109.604C47.4276 110.137 47.6969 110.492 47.8814 110.388C48.2947 110.156 49.6268 111.519 49.6268 112.175C49.6268 112.44 50.0069 112.95 50.4718 113.305C50.9331 113.667 51.3205 114.381 51.3205 114.894C51.3205 115.411 51.5714 115.973 51.8851 116.141C52.1951 116.309 52.7855 116.916 53.195 117.491C53.7854 118.315 53.8371 118.654 53.446 119.08C52.9478 119.623 53.7412 120.502 56.2024 122.123C56.9146 122.595 57.0105 123.205 57.0585 127.446C57.1101 132.042 57.1692 132.323 58.4607 134.607C60.206 137.669 60.5566 138.079 62.0178 138.725C62.7005 139.032 63.6451 140.011 64.1986 140.98C64.7374 141.923 65.5196 142.995 65.9329 143.37C66.575 143.955 66.5971 144.106 66.0768 144.397C65.741 144.584 65.5529 144.804 65.6636 144.882C65.7743 144.962 66.4753 145.408 67.2318 145.883C67.9882 146.351 68.4975 146.894 68.3683 147.088C68.0879 147.495 70.2502 149.316 71.0251 149.336C71.3203 149.342 71.5491 149.097 71.5491 148.793C71.5393 148.626 71.4876 148.463 71.3976 148.316C71.3077 148.169 71.1818 148.04 71.0288 147.94C70.7373 147.772 70.0178 146.81 69.4384 145.809C68.8591 144.807 67.9624 143.548 67.4384 142.999C66.4126 141.92 66.2392 141.351 66.9255 141.351C67.1617 141.351 67.5455 141.803 67.7742 142.343C68.2281 143.422 70.313 145.822 73.1543 148.538C74.49 149.814 74.907 150.486 74.7409 151.083C74.4347 152.181 75.3203 152.84 79.3498 154.497C81.8663 155.531 83.0213 155.812 84.0287 155.641C85.0545 155.466 85.6486 155.621 86.5711 156.303C87.2353 156.787 88.6301 157.43 89.6707 157.727C91.464 158.238 92.9769 159.342 93.0507 160.185C93.0876 160.663 95.8551 162.278 96.63 162.278C96.9474 162.278 97.3311 162.45 97.475 162.66C97.8773 163.244 98.951 163.112 98.951 162.472C98.951 162.159 99.2278 161.897 99.5636 161.897C100.124 161.897 100.353 162.566 100.719 165.147C100.781 165.573 100.313 166.429 99.678 167.046C99.0433 167.666 98.523 168.296 98.523 168.454L97.8957 169.32V170.521C97.8957 171.184 97.7481 171.852 97.5747 172.007C96.9843 172.543 97.2573 173.958 98.0802 174.63C98.5304 174.998 99.6743 176.72 100.619 178.464C102.15 181.287 103.933 183.173 105.121 183.212C105.32 183.222 105.907 183.551 106.427 183.942C107.246 184.559 107.379 185.021 107.379 187.317C107.379 188.784 107.099 191.329 106.752 192.97C106.401 194.611 106.106 196.684 106.106 197.589C106.106 198.493 105.744 200.027 105.302 201.006C104.859 201.988 104.39 203.907 104.261 205.266C104.128 206.623 103.899 208.125 103.752 208.597C103.549 209.246 103.659 209.449 104.209 209.449C104.7 209.449 104.859 209.65 104.689 210.053C104.528 210.469 104.439 210.903 104.423 211.342C104.423 211.72 104.047 212.111 103.582 212.221C103.062 212.343 102.741 212.741 102.741 213.261C102.741 213.778 102.944 214.026 103.276 213.913C103.667 213.778 103.766 214.139 103.645 215.263C103.49 216.759 104.169 220.473 104.814 221.626C105.092 222.023 105.484 222.35 105.951 222.573C106.394 222.783 106.7 223.245 106.623 223.594C106.53 224.013 106.818 224.272 107.464 224.369C109.597 224.669 112.578 224.466 112.752 224.004C112.848 223.745 112.689 223.526 112.394 223.526C111.582 223.526 109.903 221.962 109.903 221.2C109.903 220.825 109.678 220.066 109.397 219.511C108.966 218.652 108.992 218.426 109.604 218.025C110.003 217.76 110.331 217.379 110.331 217.176C110.331 216.969 110.7 216.491 111.161 216.116C112.504 215.018 112.626 214.084 111.523 213.241L110.538 212.495L111.696 211.623C112.331 211.145 112.859 210.467 112.859 210.115C112.859 209.766 113.228 209.294 113.685 209.075C114.589 208.639 114.416 207.544 113.442 207.544C113.121 207.544 112.859 207.385 112.859 207.188C112.859 206.995 113.36 206.872 113.977 206.911C114.914 206.969 115.158 206.778 115.464 205.748C115.748 204.785 116.058 204.507 116.848 204.507C119.217 204.507 121.467 202.644 120.608 201.4C119.907 200.386 120.128 200.105 121.493 200.247C122.652 200.37 123.006 200.202 123.84 199.12C124.379 198.422 125.18 197.511 125.615 197.091C127.139 195.635 128.449 193.432 128.449 192.346C128.449 190.925 130.467 189.375 132.729 189.049C134.069 188.855 134.611 188.519 135.364 187.43C136.667 185.551 137.305 183.751 137.305 181.946C137.305 180.702 137.648 180.04 139.216 178.322C140.895 176.481 141.124 176.029 141.017 174.672C140.917 173.477 140.696 173.099 140.047 172.992C139.582 172.918 138.63 172.472 137.932 172.004C137.238 171.532 135.785 171.038 134.7 170.906C133.615 170.777 132.102 170.328 131.331 169.904L129.929 169.132L127.172 168.448L127.25 168.383C127.228 168.373 126.973 168.37 126.98 168.361C127.128 168.151 126.914 167.301 126.508 166.474C126.121 165.675 125.471 164.994 124.641 164.519C123.812 164.043 122.839 163.794 121.847 163.803C120.704 163.803 119.552 163.121 116.626 160.702C115.593 159.849 115.039 159.694 112.966 159.714C111.623 159.723 110.087 159.533 109.56 159.278C109.036 159.023 108.239 158.922 107.785 159.052C107.331 159.184 106.951 159.123 106.951 158.922C106.951 158.241 103.394 159.3 102.497 160.247C101.748 161.041 101.464 161.109 100.493 160.776C100.149 160.642 99.775 160.577 99.3982 160.586C99.0214 160.595 98.6517 160.678 98.3164 160.828C96.7075 161.487 95.5673 160.118 95.5673 157.511C95.5673 155.279 95.2943 155.05 92.5932 155.05C91.0655 155.05 90.9806 154.995 91.3164 154.197C91.8552 152.905 92.6264 150.66 92.6264 150.369C92.6264 149.917 89.8663 150.092 89.1578 150.586C88.742 150.909 88.4528 151.338 88.3312 151.813C88.1135 152.95 85.2058 153.302 84.1246 152.324C82.7999 151.128 82.4272 149.717 82.7298 147.062C82.9881 144.833 83.1468 144.52 84.3423 143.825C85.2944 143.276 86.0287 143.125 86.9327 143.302C89.4272 143.793 90.512 143.696 90.2242 143.011C89.9843 142.449 90.2316 142.407 92.4013 142.637C95.2057 142.934 95.5673 143.086 95.5673 143.9C95.5673 144.601 97.2795 147.443 97.7001 147.443C97.8625 147.443 98.2462 147.185 98.5451 146.858C98.9879 146.374 98.9621 145.906 98.3865 144.255C97.999 143.15 97.6817 141.984 97.6817 141.671C97.6817 141.086 98.833 140.059 101.604 138.183C102.763 137.401 103.135 136.92 102.955 136.406C102.814 136.006 103.158 134.875 103.752 133.816C104.331 132.782 104.711 131.852 104.582 131.736C104.346 131.526 107.135 130.712 108.113 130.708C108.77 130.705 108.814 130.062 108.169 129.869C107.228 129.584 108.254 128.092 109.689 127.663C110.475 127.43 111.213 127.036 111.324 126.787C111.434 126.535 111.541 126.803 111.56 127.378C111.597 128.518 112.209 128.709 113.25 127.914C113.619 127.633 114.571 127.172 115.383 126.887C117.368 126.183 118.028 125.54 117.704 124.62C117.394 123.738 116.722 123.622 116.397 124.391C116.257 124.72 115.825 124.83 115.25 124.694C113.763 124.345 113.265 123.654 113.552 122.369C113.796 121.257 113.733 121.196 112.486 121.196C111.763 121.196 111.172 121.018 111.172 120.808C111.172 120.243 112.582 120.356 113.515 120.996C114.05 121.329 114.68 121.526 115.335 121.564C116.139 121.574 116.239 121.467 115.848 121.047C115.46 120.624 115.597 120.473 116.534 120.263C117.176 120.117 118.039 119.72 118.445 119.39C119.578 118.47 119.844 119.139 118.973 120.721C118.545 121.503 118.124 122.537 118.039 123.008C117.907 123.757 118.069 123.854 119.353 123.854C120.157 123.854 120.932 124.032 121.08 124.245C121.224 124.458 121.515 124.536 121.726 124.42C121.94 124.303 122.49 124.384 122.947 124.607C123.615 124.93 123.862 124.865 124.198 124.303C124.648 123.541 124.368 121.955 123.781 121.955C123.585 121.955 123.526 121.703 123.663 121.39C123.818 121.022 123.652 120.808 123.198 120.808C121.977 120.808 121.183 119.801 121.707 118.916C122.05 118.334 122.036 118.15 121.641 118.15C121.287 118.15 121.257 118.024 121.549 117.759C122.121 117.243 121.759 115.111 121.098 115.111C120.814 115.111 120.371 114.697 120.113 114.19C119.859 113.686 119.228 113.147 118.704 112.995C117.25 112.582 116.77 111.994 115.789 109.355C115.294 108.021 114.626 106.658 114.298 106.328C113.973 105.999 113.7 105.527 113.7 105.282C113.7 104.397 112.442 104.862 112.165 105.85C111.988 106.448 111.684 107.012 111.268 107.511C110.685 108.124 110.593 108.124 109.796 107.407C109.279 106.939 108.91 106.041 108.848 105.101C108.774 103.993 108.556 103.541 108.04 103.47C107.648 103.418 106.829 102.888 106.22 102.294C105.375 101.47 104.707 101.212 103.397 101.186C102.453 101.167 101.405 101.086 101.054 100.999C100.527 100.87 100.438 101.322 100.527 103.79C100.615 106.199 100.519 106.739 99.999 106.739C99.1798 106.739 99.1798 107.837 99.9916 108.121C100.523 108.305 101.464 110.411 101.468 111.435C101.468 111.613 100.907 112.239 100.213 112.824C99.0322 113.819 98.9732 113.996 99.309 115.611C99.8034 118.008 99.2389 118.661 97.8809 117.275C97.1023 116.477 96.8367 115.776 96.8367 114.516C96.8367 112.905 96.785 112.821 95.6264 112.821C94.3016 112.821 93.1688 112.368 90.988 110.96C90.2131 110.46 89.0434 110.03 88.3903 110.007C87.405 109.975 87.1541 109.765 86.9512 108.777C86.7925 108.024 86.3977 107.511 85.87 107.388C84.1984 106.994 85.1578 103.596 87.5047 101.596C88.2353 100.976 88.8331 100.25 88.8331 99.9847C88.8331 99.7198 89.4345 99.1642 90.1725 98.7573C90.9105 98.3535 91.7666 97.6332 92.0655 97.1519L92.6079 96.2734L92.4862 97.1229C92.4197 97.588 92.2316 98.0919 92.0729 98.2372C91.4936 98.754 91.8109 99.3354 92.9216 99.7973C93.9105 100.214 94.1651 100.169 94.9769 99.4808C95.5747 98.9737 96.0027 98.8348 96.1835 99.0996C96.5304 99.61 98.3828 99.6423 98.7223 99.1448C98.8625 98.9414 98.5894 98.557 98.1171 98.2921C97.6448 98.024 97.261 97.5912 97.261 97.3264C97.261 97.0615 97.1134 96.8548 96.94 96.8548C96.7629 96.8548 95.8588 96.2346 94.9326 95.4853C93.3865 94.232 93.3386 94.1351 94.3201 94.2772C96.143 94.5356 97.4603 92.7398 97.523 89.8941C97.5599 88.1273 97.4012 87.4296 96.8883 87.0905C95.9621 86.48 96.4824 86.1215 98.2868 86.1215C99.1134 86.1215 99.9031 85.9503 100.043 85.7468C100.449 85.1525 101.671 87.0485 101.527 88.0498C101.42 88.7862 101.545 88.9154 102.139 88.712C103.099 88.3793 105.265 90.2107 105.265 91.3509C105.265 91.8031 104.881 92.6299 104.401 93.179C103.921 93.7281 103.663 94.3741 103.826 94.6067C104.254 95.2301 103.169 95.6887 101.833 95.4465C100.837 95.2656 100.63 95.3851 100.379 96.2928C100.04 97.5137 101.132 98.5312 102.276 98.0628C103.796 97.433 104.977 97.982 106.058 99.807C106.404 100.319 106.953 100.702 107.6 100.883C108.172 101.012 108.641 101.257 108.641 101.432C108.641 101.603 109.069 101.852 109.589 101.99C112.261 102.682 112.146 102.701 111.925 101.648C111.807 101.099 111.873 100.65 112.073 100.65C112.272 100.65 112.431 100.834 112.431 101.063C112.431 101.29 112.663 101.403 112.951 101.319C114.231 100.931 113.194 96.4672 111.822 96.4672C111.047 96.4672 110.656 95.4013 111.154 94.6325C111.375 94.2837 111.575 94.1803 111.582 94.4129C111.6 94.9717 113.538 96.8548 114.098 96.8548C114.342 96.8548 114.541 96.6351 114.549 96.3735C114.556 96.1151 114.932 95.4691 115.383 94.9491C116.56 93.5925 116.438 93.1048 114.541 91.5253C113.619 90.7501 113.006 89.9846 113.176 89.8134C113.353 89.6422 113.158 89.6067 112.752 89.7391C112.346 89.8683 112.014 89.8198 112.014 89.6325C112.014 89.4419 111.637 89.1868 111.172 89.0511C110.135 88.7539 110.091 88.1564 111.065 87.491C111.563 87.1519 111.626 86.9742 111.25 86.9677C110.914 86.9613 110.785 86.6964 110.932 86.283C111.146 85.6693 110.073 84.3611 108.154 82.9141C107.676 82.5236 107.232 82.1025 106.826 81.6544C106.412 81.199 105.844 80.8889 105.567 80.9729C105.058 81.1247 102.781 78.7345 102.755 78.0207C102.748 77.8107 102.313 77.1873 101.792 76.6318C100.582 75.3494 96.8773 74.8553 94.9991 75.737C93.9363 76.2345 93.8256 76.2345 94.0397 75.7306C94.2242 75.2945 93.9585 75.1621 92.8994 75.1621C90.7076 75.1621 89.4493 76.7254 88.9954 80.0136C88.7002 82.1454 90.2426 85.0556 91.6633 85.0556C93.3791 85.0556 93.9769 87.1454 92.9068 89.3838C92.5194 90.1913 92.1947 91.0505 92.1947 91.2895C92.191 91.5317 92.0286 91.4833 91.8146 91.1829C91.6079 90.8922 91.4456 90.0524 91.4456 89.3257C91.4456 87.6461 90.4271 86.6124 89.4825 87.323C88.929 87.7397 88.8331 87.6913 88.8331 87.0033C88.8331 86.5123 88.5637 86.1958 88.1467 86.1958C87.6191 86.1958 87.5748 86.0795 87.9401 85.679C88.3017 85.2849 88.2131 84.9361 87.5711 84.1964C87.1061 83.6635 86.7261 82.9432 86.7261 82.5976C86.6849 82.1225 86.5369 81.6593 86.2907 81.2345C85.7445 80.3139 86.2021 78.5859 86.9918 78.5859C87.3202 78.5859 87.7888 78.1176 88.0397 77.5426C88.2921 76.9648 88.5703 76.3959 88.8736 75.8372C89.4862 74.7648 89.3386 74.5452 87.6707 74.093C87.0179 73.8901 86.3256 73.8023 85.6338 73.8346C84.0065 73.9864 83.549 75.4044 83.9733 78.4567C84.1837 79.9877 84.0988 80.75 83.6412 81.3766C83.3091 81.8417 83.0176 82.969 83.0029 83.8734C82.9844 85.188 83.1984 85.6822 84.073 86.3605C84.6744 86.8321 85.0397 87.407 84.8774 87.6396C84.6929 87.9077 84.0803 87.5653 83.2021 86.6997L81.8184 85.3301L80.8959 86.7352C79.8184 88.389 79.8036 88.4794 80.5564 88.4794C80.9254 88.4794 81.0545 88.7895 80.9328 89.358C80.7852 90.0589 80.4678 90.243 79.3129 90.272C78.5195 90.2947 77.7631 90.1493 77.6376 89.962C77.5085 89.7746 77.0546 89.6196 76.6302 89.6196C73.8849 88.4342 72.7262 89.7682 71.7926 90.3851C71.4568 90.3851 71.0583 90.2074 70.9144 89.9975C70.741 89.7423 70.3941 89.7423 69.8665 89.9975C69.431 90.2074 68.3462 90.3786 67.4606 90.3722C66.0399 90.3625 65.9366 90.2979 66.5824 89.8554C66.9624 89.597 67.1986 89.3257 67.1469 89.2255L66.3536 88.1564C65.9314 87.8748 65.4157 87.7217 64.885 87.7203C64.3278 87.7203 62.8961 87.2746 61.7116 86.7352C60.457 86.1699 59.1286 85.8308 58.5382 85.9341C57.8075 86.0633 57.4791 85.9148 57.3278 85.3915C57.0363 84.3838 56.6083 84.5 56.1101 85.721L55.671 86.7675L54.9736 85.3043C54.564 84.4483 54.0585 83.9251 53.7448 84.0284C53.4496 84.1253 53.2652 84.4064 53.3316 84.6583C53.4054 84.9555 53.1471 85.0297 52.5825 84.8682C51.9773 84.6971 50.9589 85.0782 49.1508 86.1699C46.2578 87.9141 45.4534 88.0498 44.3686 86.9677C43.9553 86.5511 42.9774 86.1021 42.1915 85.9697C41.4129 85.8405 40.6638 85.5789 40.5383 85.3915C40.4129 85.2074 39.5789 85.0556 38.697 85.0556C37.8114 85.0556 36.4055 84.7972 35.5716 84.4839C34.6872 84.1591 33.7466 83.967 32.7893 83.9154C32.0882 83.9154 31.5052 83.7474 31.5052 83.5439C31.5052 83.3372 30.9886 83.0595 30.3466 82.9206C29.5651 82.7349 28.8063 82.4828 28.0809 82.168C27.0994 81.7222 26.8817 81.7481 26.2175 82.4102C25.8042 82.8237 25.2581 83.1208 25.0034 83.0821C23.9629 82.9173 21.3946 84.794 20.6935 86.2248C20.1031 87.4296 19.7452 87.7203 18.8301 87.7203C18.5865 87.7203 18.4426 87.7914 18.2692 87.8398L18.2655 56.3118ZM99.7481 58.828C99.4758 58.8439 99.2087 58.9007 98.9584 58.9959C96.6854 59.3125 93.9105 59.4546 92.6005 59.8422C91.4566 60.1814 90.5231 61.6639 90.5231 61.7964C90.5231 61.9288 90.7961 62.507 91.1282 63.0787C91.6596 63.996 91.6522 64.1316 91.1024 64.1316C90.7555 64.1316 90.2353 64.6581 89.9364 65.2945C89.4567 66.3345 89.3312 66.3894 88.8257 65.8371C88.6526 65.6541 88.4238 65.5179 88.1658 65.4441C87.9078 65.3704 87.6312 65.3622 87.3681 65.4204C86.7777 65.5561 86.3165 65.3784 85.9696 64.8778C85.6191 64.3674 84.9844 64.1349 83.977 64.1349C82.2243 64.1349 82.0656 64.7809 83.4014 66.4799C84.084 67.3455 84.5231 67.5587 85.2501 67.3939C86.3497 67.1452 86.7113 67.8881 86.7187 70.456C86.7261 72.0774 87.1615 72.6589 88.619 72.9851H88.6264C89.7039 73.2241 97.6522 73.2435 98.3385 73.0109C98.6226 72.914 98.7629 72.5006 98.6448 72.0936C98.5888 71.8785 98.5832 71.6557 98.6282 71.4387C98.6732 71.2216 98.768 71.0148 98.9068 70.8307C99.5894 70.0878 99.0802 69.2221 97.6743 68.6956C96.6854 68.3274 96.0692 68.3597 94.3496 68.8765C92.3755 69.4676 92.1393 69.4676 90.7592 68.8765C89.4308 68.308 89.3423 68.1788 89.9179 67.662C90.405 67.2228 91.0618 67.142 92.6485 67.3326C93.7961 67.4682 94.7334 67.4456 94.7334 67.2809C94.7334 67.1194 95.4013 66.9708 96.2241 66.9514C97.309 66.9256 97.6595 67.0548 97.5009 67.4263C97.1872 68.1627 98.0064 68.0529 99.6558 67.1355C100.696 66.5541 101.062 66.102 100.962 65.5141C100.888 65.0684 100.597 64.7454 100.313 64.797C99.6226 64.9262 99.8293 64.1672 100.726 63.3177C101.128 62.9366 101.353 62.381 101.228 62.0774C101.073 61.7156 101.309 61.4798 101.933 61.3991C102.453 61.3312 102.958 61.0631 103.054 60.8015C103.172 60.4785 101.578 58.7246 99.7481 58.828ZM68.0657 59.6872C66.2392 59.7098 65.6488 60.598 65.6488 60.9759C65.6488 61.257 65.9772 61.6058 66.3831 61.7414C66.789 61.8771 67.3646 62.3002 67.6672 62.6814C68.313 63.4889 68.2318 63.4727 69.6709 62.9785C70.5713 62.6717 70.7631 62.4068 70.6082 61.6672C70.4975 61.1536 70.6118 60.6594 70.8701 60.5657C71.1284 60.4688 69.8923 59.6613 68.0657 59.6872ZM79.1062 59.8971C77.1284 59.9843 76.8553 60.64 77.4347 61.2666C77.9217 61.7964 79.8442 61.8384 80.7114 61.3442C81.7704 60.7402 81.0841 59.8131 79.1062 59.8971ZM83.2021 59.9165C81.6782 59.9165 81.608 60.3816 82.1394 60.9889C82.4567 61.3506 83.0951 61.9449 83.5601 62.3067C84.5822 63.1077 86.1246 63.1885 86.4346 62.4585C86.7187 61.7899 86.3829 61.4669 85.4014 61.4669C84.8995 61.4669 84.7261 61.2731 84.8848 60.8952C85.0766 60.443 84.7261 59.9165 83.2021 59.9165ZM188.699 60.3267C185.799 60.3267 185.725 60.359 186.013 61.1859C186.175 61.6575 186.493 62.1 186.718 62.1775C186.976 62.2647 186.965 62.4197 186.681 62.5748C186.09 62.9075 186.563 64.5128 187.253 64.5128C187.548 64.5128 187.91 64.9327 188.053 65.4592C188.489 67.0225 189.352 66.5477 190.116 64.3061C190.511 63.1465 190.836 61.9482 190.836 61.6413C190.836 61.3377 191.02 61.089 191.249 61.089C191.363 61.0873 191.472 61.0464 191.552 60.9751C191.632 60.9038 191.677 60.8078 191.677 60.7079C191.677 60.4914 190.404 60.3267 188.699 60.3267ZM194.334 60.3267C193.275 60.3267 193.146 60.4656 193.12 61.6607C193.098 62.7201 193.253 62.9915 193.884 62.9915C194.319 62.9915 194.563 63.1627 194.419 63.3726C193.876 64.1607 195.367 63.7085 196.315 62.7912L197.312 61.8416L196.404 61.0825C195.829 60.6358 195.101 60.3698 194.334 60.3267ZM267.994 60.3267C267.514 60.3267 267.123 60.4979 267.123 60.7079C267.123 61.202 268.263 61.202 268.599 60.7079C268.746 60.4979 268.473 60.3267 267.994 60.3267ZM74.1395 61.286C74.0583 61.3603 74.2207 62.0418 74.4974 62.8009C75.0398 64.2835 76.0435 64.4159 75.8627 62.985C75.7594 62.2001 74.5048 60.9598 74.1395 61.286ZM64.4938 62.0451C64.3167 62.0031 64.147 62.1 63.9071 62.3358C63.6008 62.6297 63.0621 62.8106 62.7079 62.7298C62.3315 62.6458 61.6488 63.14 61.0658 63.9217C60.5197 64.6549 59.6267 65.6853 59.0843 66.215C58.0179 67.2518 58.1064 68.2822 59.254 68.2402C59.7304 68.2425 60.2022 68.3225 60.6451 68.476C61.1138 68.6569 61.6193 68.4114 62.2355 67.704C62.9293 66.9127 63.2577 66.7738 63.6377 67.1129C64.0141 67.4553 63.992 67.5555 63.5492 67.5555C62.9219 67.5555 61.4311 68.6375 61.4311 69.0929C61.4311 69.6356 62.8407 69.8649 63.2134 69.3804C63.4717 69.0509 63.5197 69.1414 63.361 69.6679C63.1765 70.2557 63.4459 70.611 64.4864 71.1601C65.2392 71.5574 66.11 72.1937 66.4126 72.5749C67.1174 73.4599 68.3794 73.4567 69.7927 72.5555C70.8148 71.903 72.2945 71.551 75.4531 71.2054C75.9139 71.1571 76.3729 71.0968 76.8295 71.0245C76.9549 70.9954 76.8369 70.6078 76.5675 70.1524C76.0841 69.3384 76.062 69.3384 75.4457 70.0587C74.8406 70.7628 74.8184 70.7532 75.0546 69.8714C75.3867 68.5987 74.6708 67.5555 73.4458 67.5555C72.7447 67.5555 72.4864 67.3939 72.6413 67.0257C72.7668 66.735 72.6709 66.3797 72.4347 66.2505C72.1948 66.1149 72.1026 65.7757 72.2281 65.4882C72.6192 64.5709 71.6229 64.4708 70.7299 65.3397C69.7816 66.257 69.6229 66.9967 70.2945 67.3681C70.5307 67.5005 70.5897 67.788 70.4421 68.0044C70.2945 68.2208 70.4384 68.5503 70.7557 68.7312C71.1985 68.9863 71.1358 69.0671 70.4938 69.0703C69.9956 69.0703 69.3536 68.6084 68.9292 67.9366C68.5344 67.31 67.9181 66.7964 67.5639 66.7964C67.2023 66.7964 66.9108 66.6252 66.9108 66.4153C66.9108 65.7725 65.2872 65.9954 64.8333 66.706C64.4422 67.3132 64.4053 67.3132 64.3905 66.7221C64.3868 66.3668 64.5861 65.9663 64.8407 65.8242C65.099 65.6853 65.2244 65.1653 65.1211 64.6743C65.0178 64.1833 65.1211 63.7182 65.361 63.6471C65.6303 63.5664 65.5455 63.182 65.1359 62.6555C64.8481 62.2873 64.6673 62.0935 64.4938 62.0451ZM111.822 62.2324C112.183 62.2324 112.368 62.4036 112.224 62.6136C112.076 62.8235 111.781 62.9915 111.567 62.9915C111.346 62.9915 111.172 62.8203 111.172 62.6136C111.172 62.4036 111.46 62.2324 111.822 62.2324ZM237.035 64.5354C236.418 64.5903 235.643 64.9876 234.798 65.7273C233.721 66.6704 233.057 66.9385 231.865 66.9095C230.562 66.8772 230.038 67.1388 228.393 68.6698C227.322 69.6614 226.131 70.5755 225.743 70.7015C225.278 70.8533 225.116 71.2053 225.263 71.7157C225.393 72.1517 225.094 73.0884 224.588 73.8636C224.094 74.6195 223.739 75.4334 223.795 75.6724C223.85 75.9147 223.559 76.5736 223.145 77.1324C222.732 77.688 222.426 78.3792 222.47 78.657C222.618 79.6453 222.437 80.1525 222.027 79.9199C221.787 79.7875 221.599 80.1105 221.599 80.6628C221.599 81.3766 221.824 81.6318 222.441 81.6318C223.001 81.6318 223.37 81.9742 223.562 82.6783C223.717 83.2533 224.013 83.8282 224.227 83.9542C224.721 84.2481 227.142 84.3095 227.621 84.0414C227.824 83.9283 227.588 83.447 227.101 82.9755C225.588 81.522 225.562 79.8101 227.02 76.9935C227.732 75.624 228.688 74.0994 229.149 73.602C229.61 73.1014 230.581 72.0516 231.311 71.2732C232.086 70.4398 233.673 69.4288 235.149 68.8313C237.872 67.7299 238.677 66.8545 238.282 65.4269C238.097 64.7777 237.647 64.4837 237.035 64.5354ZM66.4532 64.6161C66.3013 64.618 66.1529 64.6572 66.0252 64.7292C65.7004 64.9101 65.73 65.0942 66.1248 65.3203C66.8776 65.7499 67.3314 65.7402 67.3314 65.2977C67.3314 64.9004 66.896 64.6097 66.4532 64.6194V64.6161ZM81.2132 65.2912C81.0804 65.2848 80.9992 65.3817 80.9254 65.5755C80.7889 65.9405 80.5933 65.9598 80.1837 65.6498C79.6007 65.2137 77.8701 65.8759 77.8701 66.5348C77.8701 66.7092 77.5749 66.5864 77.2059 66.2538C76.2096 65.3526 75.4199 65.5141 75.49 66.6091C75.5491 67.5781 76.6339 68.195 77.4568 67.7396C77.752 67.5748 77.8037 67.8494 77.6155 68.5341C77.3535 69.4805 77.4162 69.5548 78.3535 69.3933C79.2833 69.2318 79.3682 69.3255 79.2132 70.288C79.0472 71.3152 79.1136 71.3604 80.7114 71.3604H82.3903L82.4641 68.757C82.5268 66.7157 82.3829 66.0374 81.8257 65.6207C81.5379 65.4075 81.346 65.2977 81.2095 65.2912H81.2132ZM155.194 65.4269C155.334 65.5141 155.408 65.8371 155.585 66.5089C155.903 67.6976 155.401 67.8591 154.353 66.9159C153.689 66.3151 153.696 66.2473 154.401 65.7822C154.843 65.4915 155.054 65.3397 155.194 65.4269ZM303.779 67.3972C302.469 67.704 301.576 70.0006 302.731 71.5897C303.34 72.4295 303.654 72.5458 304.787 72.3326C305.517 72.1937 306.617 72.0807 307.233 72.0807C307.849 72.0839 308.857 71.6672 309.466 71.1537C310.742 70.0878 311.384 69.9683 311.384 70.7984C311.384 71.664 314.189 72.7687 315.089 72.2551C316.196 71.6253 315.938 70.821 314.539 70.5497C313.846 70.4172 313.469 70.2783 313.698 70.2396C314.388 70.1233 312.528 69.5161 311.388 69.487C310.809 69.4708 309.484 68.9443 308.447 68.3242C306.827 67.3552 306.506 67.2809 306.193 67.7848C305.864 68.3113 305.746 68.3048 305.056 67.7428C304.864 67.577 304.626 67.457 304.366 67.3939C304.174 67.3493 303.971 67.3525 303.779 67.3972ZM301.27 68.321C301.038 68.321 300.846 68.8281 300.846 69.4547C300.846 70.0813 301.038 70.6013 301.266 70.6013C301.499 70.6013 301.691 70.0845 301.691 69.4547C301.691 68.8281 301.499 68.3242 301.266 68.3242L301.27 68.321ZM84.3276 69.08C84.0139 69.08 83.5379 69.5096 83.2722 70.0329C82.8589 70.8533 82.9328 71.1246 83.7815 71.9386C84.8995 73.0141 84.7556 72.9592 85.6338 72.6556C87.0471 72.1647 85.9217 69.08 84.3276 69.08ZM59.9736 72.6007C59.422 72.5469 58.8643 72.5687 58.3205 72.6653C56.457 72.9205 56.4459 72.9302 56.8149 74.093C57.0474 74.8262 57.0253 75.5335 56.7559 75.9857C56.5197 76.383 56.2541 77.1808 56.1581 77.7461C56.0622 78.3178 55.8629 79.1673 55.7079 79.6324C55.5161 80.2332 55.6378 80.553 56.1286 80.7242C56.5124 80.8534 57.1138 81.4703 57.4718 82.0937C58.0474 83.1014 58.195 83.166 58.826 82.6751C59.2171 82.3779 59.8702 82.0226 60.2761 81.8934C60.682 81.7642 61.0105 81.312 61.0105 80.8986C61.0105 80.4787 61.4385 79.9393 61.9588 79.697C62.7411 79.332 62.8149 79.3417 62.3795 79.7584C61.7522 80.3592 61.6857 81.6318 62.2798 81.6318C62.5123 81.6318 62.6931 81.958 62.6931 82.3618C62.6931 83.7668 63.1913 84.2901 64.5381 84.3224L65.8554 84.3579L64.7005 84.7391C64.0621 84.949 63.5344 85.2623 63.5344 85.4367C63.5344 86.3314 64.1728 86.9678 65.468 87.3521C66.2613 87.5879 66.9108 87.9723 66.9108 88.2048C67.3646 89.3483 68.4163 88.7798 69.1949 88.9962C69.848 88.98 70.2059 89.0253 70.5786 89.0705C71.9914 88.7376 73.3998 88.3909 74.8037 88.0304C74.9328 88.0336 76.1985 88.3728 76.6376 88.4826C77.8184 88.4826 78.9254 87.659 78.3941 87.1777C78.2206 87.0259 78.4125 86.7352 78.8221 86.5317C79.228 86.3282 79.5564 85.8954 79.5564 85.5724C79.5564 84.9264 77.9439 83.5698 77.1579 83.5504C76.8848 83.544 76.5491 83.1499 76.4088 82.6783C76.1714 81.9061 75.9241 81.1363 75.6671 80.3689C75.3092 79.29 75.2981 78.5019 75.645 77.3359C75.9033 76.4703 76.0288 75.624 75.9181 75.4625C75.5564 74.9392 73.6339 75.146 73.383 75.737C73.2502 76.0504 72.8775 76.3088 72.5565 76.3088C72.2096 76.3088 71.9661 76.6996 71.9661 77.2681C71.9661 78.2048 71.9402 78.2112 70.9144 77.604C69.9292 77.0226 69.8591 77.0258 69.8591 77.6427C69.8591 78.2564 69.7927 78.2564 68.7964 77.6654C68.206 77.3197 67.5418 77.1421 67.3204 77.2681C67.0916 77.394 66.9145 77.3327 66.9145 77.1389C66.9145 76.9451 66.1506 76.0342 65.2171 75.1201C64.0658 73.9799 63.2503 73.4987 62.6525 73.5826C62.1691 73.6505 61.4237 73.4147 60.992 73.0594C60.7168 72.8151 60.3602 72.6567 59.9736 72.6007ZM305.934 73.4082C305.864 73.384 305.788 73.3744 305.712 73.38C305.637 73.3856 305.564 73.4063 305.499 73.4405C305.196 73.6085 305.111 74.1414 305.277 74.823C305.447 75.5077 305.377 75.9211 305.093 75.9211C304.355 75.9211 304.576 76.6124 305.377 76.7997C305.783 76.8966 306.731 76.9935 307.48 77.0193C308.539 77.0516 308.853 76.9128 308.853 76.383C308.854 76.1752 308.809 75.9691 308.72 75.7766C308.63 75.5841 308.498 75.4089 308.331 75.2611C308.164 75.1132 307.966 74.9955 307.747 74.9148C307.528 74.8341 307.293 74.7919 307.056 74.7907C306.624 74.7907 306.362 74.6518 306.477 74.4838C306.735 74.1123 306.366 73.5406 305.934 73.4082ZM82.9733 74.81L81.3756 74.8262C78.3055 74.8746 77.9734 75.1783 79.0509 76.9451C79.7003 78.011 79.6966 78.489 79.0509 77.9044C78.3055 77.2325 77.442 77.3488 77.4568 78.1143C77.4752 78.9186 78.4236 80.1137 79.0435 80.1137C79.287 80.1137 79.7409 80.624 80.0472 81.2539C80.7003 82.5814 81.3571 82.6848 82.5896 81.6512C83.6412 80.7661 83.9143 78.7732 83.0877 78.0271C82.7003 77.6783 82.5822 77.042 82.7372 76.1537L82.9733 74.81ZM276.643 75.6627C276.606 75.75 276.396 75.9438 276.016 76.2538C274.813 77.2261 274.717 77.239 274.717 76.4961C274.717 76.1828 274.883 75.9244 275.093 75.9244C275.307 75.9244 275.831 75.8113 276.259 75.6757C276.547 75.5788 276.68 75.5723 276.643 75.6627ZM343.447 81.3217C342.502 81.1925 341.347 82.1357 341.321 83.0562C341.303 83.6215 343.746 83.6958 344.679 83.1564C345.528 82.6686 344.738 81.4929 343.447 81.3217ZM242.071 82.6977C242.119 82.6525 242.182 82.6751 242.249 82.772C242.47 83.0853 242.529 84.3095 242.392 85.4916C242.186 87.2778 242.26 87.6654 242.82 87.7752C243.241 87.8592 243.374 88.0853 243.171 88.3793C242.44 89.4322 241.828 87.9303 241.835 85.075C241.835 83.6118 241.92 82.8334 242.071 82.6977ZM251.256 82.9755C251.319 82.9173 251.385 83.0271 251.448 83.2888C251.536 83.6764 251.422 84.1609 251.197 84.3644C250.935 84.6034 250.876 84.3514 251.034 83.6602C251.123 83.2629 251.189 83.0336 251.256 82.9755ZM219.614 86.3573C219.415 86.3541 219.23 86.4897 218.913 86.7772C218.201 87.4199 218.031 88.1725 218.507 88.6054C219.002 89.0511 219.762 88.8831 220.485 88.1629C221.142 87.5104 221.134 87.42 220.393 86.8127C220.024 86.5123 219.81 86.3605 219.614 86.3573ZM102.575 89.303C101.652 89.1415 101.062 89.8295 101.054 91.0763C101.051 91.8128 101.239 91.9355 102.213 91.8354C103.187 91.7352 103.375 91.535 103.375 90.5757C103.375 89.7682 103.139 89.3999 102.575 89.303ZM242.677 89.6196C243.271 89.6196 243.201 90.243 242.455 91.5447C242.101 92.1584 241.725 92.6622 241.614 92.6622C241.234 92.6622 241.415 91.5705 241.835 91.3379C242.068 91.2087 242.256 90.7662 242.256 90.3593C242.256 89.9555 242.444 89.6196 242.677 89.6196ZM18.2655 90.1364C18.5238 90.4077 18.6862 90.637 19.1105 91.0085C20.1474 91.9193 21.1843 92.6622 21.4057 92.6622C21.6271 92.6622 21.8116 93.0046 21.8116 93.4245C21.8116 93.8444 21.5311 94.19 21.1769 94.19C21.006 94.1866 20.8434 94.1244 20.7246 94.0167C20.6058 93.9091 20.5402 93.7648 20.5422 93.6151C20.5393 93.462 20.4676 93.3161 20.3425 93.2091C20.2175 93.1021 20.0492 93.0425 19.8743 93.0434C19.4168 93.0434 18.8227 93.2759 18.2655 93.5731V90.1364ZM240.743 92.8948C240.898 92.9206 240.994 92.9852 240.994 93.0821C240.994 93.2695 240.614 93.4245 240.153 93.4245C239.688 93.4245 239.304 93.3599 239.304 93.2792C239.304 93.1984 239.688 93.0466 240.153 92.9368C240.344 92.8857 240.545 92.8713 240.743 92.8948ZM152.412 93.0918C152.058 93.0918 151.689 93.3599 151.194 93.8993C150.043 95.1364 150.139 95.8373 151.434 95.6145C152.415 95.4465 152.456 95.482 151.862 96.0764C151.024 96.9097 151.028 97.3684 151.877 97.0777C152.43 96.8839 152.493 97.0453 152.253 98.024C152.006 99.0512 152.072 99.1804 152.755 98.993C153.183 98.88 154.01 99.0253 154.589 99.3257C155.84 99.9685 156.545 100.03 156.891 99.5228C157.032 99.3193 157.788 98.8735 158.578 98.5344C159.364 98.1985 160.312 97.5202 160.674 97.0227C161.271 96.1959 161.264 96.0021 160.589 94.8005C159.851 93.4827 158.423 92.7462 157.947 93.4439C157.81 93.6442 156.899 93.8315 155.928 93.8638C154.958 93.8961 154.165 94.1157 154.165 94.3386C154.165 94.5583 153.862 94.3515 153.5 93.8896C153.087 93.3567 152.762 93.0918 152.412 93.0918ZM60.4828 93.6022C60.5474 93.614 60.6086 93.6373 60.6625 93.6706C60.7165 93.704 60.7621 93.7466 60.7964 93.796C60.944 94.0091 61.5308 94.19 62.1101 94.19C63.5012 94.19 63.0326 94.8166 61.4016 95.1429C60.6931 95.2818 60.0068 95.6435 59.8813 95.9375C59.7559 96.2314 59.4607 96.4672 59.2245 96.4672C58.8038 96.4672 59.5677 95.4013 60.3832 94.8489C60.6488 94.6681 60.5898 94.4452 60.2245 94.2352C59.8555 94.0188 59.8075 93.8153 60.088 93.6603C60.146 93.6281 60.2109 93.6064 60.2787 93.5964C60.3465 93.5864 60.4159 93.5884 60.4828 93.6022ZM18.2655 97.5945C18.3061 97.6074 18.3578 97.6591 18.3983 97.6623C18.7673 97.6946 19.3504 97.743 19.6972 97.7624C20.099 97.7984 20.4869 97.9109 20.8337 98.0919C21.1068 98.2534 21.45 98.2017 21.5976 97.9853C21.7452 97.7721 22.0441 97.6978 22.2618 97.8173C22.7894 98.1145 22.7562 99.1319 22.2175 99.1319C21.4647 99.1319 19.0921 100.728 18.2618 101.716L18.2655 97.5945ZM100.368 99.1319C99.7481 99.1319 99.5931 99.597 100.065 100.023C100.608 100.511 101.445 100.275 101.202 99.7036C101.069 99.3903 100.696 99.1319 100.375 99.1319H100.368ZM96.5562 100.327C95.8847 100.198 94.7223 101.17 94.7223 101.865C94.7223 102.501 95.9695 102.139 96.6116 101.315C97.2278 100.531 97.2204 100.453 96.5562 100.327ZM98.9031 101.416C98.1282 101.416 97.7666 102.514 98.368 103.053C98.7665 103.415 99.2389 103.053 99.4898 102.181C99.6558 101.613 99.4972 101.416 98.9031 101.416ZM67.5012 102.475C67.7115 102.585 67.4606 102.992 66.9292 103.379C65.5344 104.397 64.8444 104.239 66.0731 103.179C66.6488 102.682 67.2908 102.365 67.5012 102.475ZM202.378 103.315C202.932 103.315 203.898 104.067 203.898 104.494C203.898 105.214 202.754 105.017 202.341 104.226C201.983 103.534 201.991 103.315 202.378 103.315ZM195.057 108.444C195.286 108.315 195.585 108.483 195.721 108.799C196.127 109.765 195.71 110.224 195.157 109.423C194.828 108.948 194.791 108.593 195.057 108.444ZM191.039 108.644C190.692 108.644 190.404 108.796 190.404 108.987C190.404 109.18 190.293 109.61 190.153 109.94C189.854 110.65 190.448 110.741 191.168 110.088C191.869 109.455 191.795 108.644 191.039 108.644ZM329.716 112.821C328.952 112.821 328.897 113.273 329.587 113.893C330.307 114.542 330.908 114.452 330.606 113.744C330.491 113.499 330.405 113.245 330.347 112.985C330.347 112.895 330.063 112.827 329.713 112.827L329.716 112.821ZM49.5825 114.355C48.8224 114.355 48.7338 114.5 48.9811 115.392C49.1434 115.97 49.5678 116.739 49.9331 117.104C50.8002 117.976 50.922 117.943 50.708 116.91C50.5976 116.343 50.5261 115.772 50.494 115.198C50.4718 114.591 50.2135 114.355 49.5825 114.355ZM81.5748 115.879C81.87 115.876 82.2206 116.138 82.3571 116.461C82.6523 117.159 82.2833 117.617 81.8848 117.036C81.7335 116.813 81.763 116.629 81.9512 116.626C82.1357 116.626 82.0066 116.454 81.656 116.251C81.2132 115.993 81.1985 115.883 81.5748 115.879ZM336.273 116.251C335.794 116.251 335.403 116.422 335.403 116.632C335.403 116.842 335.676 117.013 336.008 117.013C336.34 117.013 336.746 116.842 336.886 116.632C337.03 116.422 336.749 116.251 336.273 116.251ZM348.052 117.013C347.944 117.022 347.843 117.066 347.77 117.136C347.697 117.206 347.656 117.298 347.656 117.393C347.656 117.488 347.697 117.579 347.77 117.65C347.843 117.72 347.944 117.764 348.052 117.772C348.108 117.771 348.162 117.76 348.213 117.74C348.264 117.72 348.31 117.692 348.349 117.657C348.387 117.621 348.417 117.58 348.437 117.534C348.457 117.488 348.467 117.44 348.465 117.391C348.467 117.293 348.425 117.198 348.347 117.128C348.27 117.057 348.164 117.016 348.052 117.013ZM349.738 117.013C349.63 117.022 349.53 117.066 349.457 117.136C349.383 117.206 349.343 117.298 349.343 117.393C349.343 117.488 349.383 117.579 349.457 117.65C349.53 117.72 349.63 117.764 349.738 117.772C349.794 117.771 349.85 117.761 349.901 117.741C349.953 117.722 350 117.693 350.039 117.658C350.078 117.623 350.109 117.581 350.129 117.535C350.15 117.489 350.16 117.44 350.159 117.391C350.16 117.292 350.116 117.197 350.037 117.126C349.959 117.056 349.851 117.015 349.738 117.013ZM340.735 117.465C340.454 117.369 339.875 117.659 339.72 118.082C339.617 118.36 339.808 118.444 340.218 118.302C340.587 118.173 340.882 117.908 340.882 117.704C340.882 117.575 340.827 117.498 340.735 117.465ZM345.827 117.746C345.661 117.763 345.236 117.772 344.893 117.772C344.546 117.772 344.259 117.95 344.259 118.16C344.259 118.367 344.749 118.531 345.347 118.531C345.949 118.531 346.366 118.344 346.284 118.121C346.2 117.895 345.997 117.733 345.827 117.746ZM91.512 122.514C91.9769 122.498 92.464 122.627 93.1467 122.895C93.9068 123.192 94.1799 124.239 93.4935 124.239C93.2832 124.239 92.8146 124.342 92.4456 124.471C91.8109 124.691 91.5895 124.449 91.7408 123.712C91.8072 123.383 91.0138 123.509 89.5637 124.048C88.3792 124.487 88.715 123.703 90.0065 123.015C90.5969 122.698 91.0471 122.53 91.512 122.514ZM221.68 124.484C222.548 124.445 223.145 124.688 223.559 125.237C224.123 125.989 224.09 126.028 223.153 125.863C222.599 125.77 221.883 125.941 221.551 126.238C221.23 126.531 220.848 126.768 220.426 126.936C220.079 127.039 220.337 127.527 221.164 128.347C221.942 129.116 222.463 130.075 222.514 130.821C222.562 131.49 222.846 132.372 223.149 132.789C223.784 133.648 223.891 135.272 223.315 135.272C222.991 135.292 222.672 135.35 222.367 135.447C222.057 135.544 221.263 135.23 220.603 134.743C219.566 133.977 219.466 133.735 219.883 133.037C220.145 132.591 220.566 132.23 220.81 132.23C221.053 132.23 220.655 131.551 219.924 130.721C218.548 129.152 217.699 127.194 218.057 126.406C218.433 125.576 220.393 124.536 221.68 124.484ZM208.278 124.762H208.286C208.703 124.82 208.976 125.04 208.743 125.379C208.599 125.589 207.983 125.76 207.367 125.76C206.33 125.76 206.293 125.715 206.932 125.137C207.11 124.99 207.323 124.88 207.556 124.815C207.789 124.75 208.036 124.732 208.278 124.762ZM315.443 125.075C315.163 124.978 314.587 125.263 314.429 125.689C314.329 125.97 314.517 126.051 314.93 125.909C315.299 125.779 315.595 125.515 315.595 125.311C315.595 125.185 315.536 125.108 315.443 125.075ZM203.47 125.279C203.92 125.337 204.264 125.534 204.075 125.809C203.95 125.996 204.149 126.429 204.526 126.768C205.072 127.259 205.419 127.301 206.216 126.971C207.389 126.49 208.71 126.984 211.061 128.796C212.289 129.743 212.43 130.001 211.906 130.314C210.946 130.893 208.131 130.779 207.415 130.137C206.61 129.407 204.721 129.403 203.662 130.124C202.607 130.844 201.175 130.857 200.393 130.156C199.858 129.672 199.895 129.378 200.766 127.827C201.312 126.852 201.968 125.841 202.216 125.573C202.459 125.305 203.02 125.217 203.47 125.279ZM229.987 125.553C230.614 125.586 230.854 126.219 230.363 127.071C229.824 128.011 229.968 127.937 229.079 127.756C228.053 127.553 228.16 126.257 229.245 125.734C229.467 125.615 229.726 125.552 229.987 125.553ZM95.4419 125.641C95.4677 125.615 95.5157 125.615 95.5895 125.641C95.7433 125.707 95.8914 125.784 96.0323 125.87C96.512 126.138 96.833 126.752 96.833 127.372C96.833 127.95 96.785 128.418 96.726 128.418C96.6669 128.418 96.3127 127.74 95.9289 126.916C95.5489 126.099 95.3754 125.728 95.4419 125.641ZM97.6263 125.76C97.8588 125.76 98.1614 125.934 98.3053 126.148C98.4492 126.354 98.3791 126.519 98.1466 126.519C97.9141 126.519 97.6042 126.354 97.464 126.144C97.3164 125.934 97.3939 125.757 97.6263 125.757V125.76ZM313.55 125.76C312.993 125.76 311.798 126.849 311.798 127.359C311.798 127.591 312.189 127.527 312.724 127.204C313.742 126.59 314.222 125.76 313.55 125.76ZM185.88 125.77C185.95 125.77 186.002 125.931 186.087 126.264C186.197 126.674 186.515 126.871 186.865 126.748C187.205 126.629 187.456 126.778 187.456 127.084C187.456 127.382 188.312 128.157 189.356 128.803C190.622 129.591 191.256 130.259 191.26 130.821C191.267 131.28 191.644 132.081 192.094 132.608C192.548 133.131 192.924 133.825 192.932 134.152C192.943 134.962 194.009 136.222 194.692 136.232C195.485 136.235 196.662 134.045 195.976 133.842C195.249 133.622 195.349 132.734 196.127 132.462C196.489 132.34 196.67 132.059 196.526 131.849C196.382 131.635 196.673 131.467 197.183 131.467C197.895 131.467 198.046 131.639 197.876 132.227C197.754 132.646 197.802 132.986 197.987 132.986C198.179 132.986 198.242 133.328 198.12 133.745C197.994 134.171 198.101 134.513 198.367 134.513C198.625 134.513 198.839 134.772 198.839 135.092C198.839 135.754 200.492 136.416 202.142 136.416C202.758 136.416 203.64 136.448 204.105 136.487C204.57 136.522 205.374 136.422 205.895 136.267C206.773 136.002 206.847 136.096 206.847 137.508C206.847 138.344 206.666 139.446 206.452 139.953C206.046 140.922 204.378 141.568 203.758 141.006C203.551 140.822 202.751 140.838 201.928 141.041C200.817 141.319 199.876 141.254 198.068 140.757C196.754 140.395 195.5 139.956 195.278 139.778C194.219 138.932 191.673 140.001 191.673 141.293C191.673 142.165 189.304 141.503 187.898 140.234C187.346 139.775 186.631 139.496 185.873 139.442C184.522 139.426 182.961 138.512 183.64 138.134C184.268 137.785 184.201 135.392 183.563 135.172C182.33 134.746 174.707 135.634 173.338 136.367C171.902 137.13 169.127 137.285 169.127 136.603C169.127 136.393 169.758 136.167 170.541 136.099C172.201 135.957 173.972 134.433 173.972 133.144C173.972 132.588 174.507 131.891 175.441 131.251C176.253 130.692 176.924 129.927 176.924 129.542C176.924 128.632 177.581 128.292 178.482 128.748C179.006 129.013 179.662 128.887 180.858 128.296C182.149 127.65 182.548 127.579 182.714 127.982C183.02 128.741 185.371 131.086 185.832 131.086C186.05 131.086 186.736 131.516 187.356 132.033C188.662 133.124 188.249 133.89 186.338 133.919C184.736 133.948 184.651 134.739 186.179 135.453C187.456 136.048 188.301 135.97 188.301 135.253C188.301 135.056 188.688 134.542 189.164 134.113C189.769 133.564 189.939 133.079 189.732 132.498C189.474 131.752 189.518 131.723 190.149 132.191C190.533 132.482 190.946 132.63 191.061 132.527C191.452 132.172 190.762 131.122 189.991 130.902C189.544 130.762 189.18 130.473 188.976 130.098C188.843 129.778 188.544 129.62 188.323 129.743C188.098 129.869 187.577 129.491 187.164 128.909C186.789 128.369 186.337 127.873 185.817 127.433C185.415 127.152 185.33 126.774 185.559 126.293C185.725 125.951 185.81 125.776 185.88 125.77ZM93.1393 125.928L93.1319 125.934C93.298 125.944 93.191 126.167 92.7887 126.716C92.3754 127.269 92.222 127.94 92.3607 128.59H92.3681C92.5083 129.106 92.4345 129.623 92.202 129.756C91.9585 129.891 91.7814 129.542 91.7814 128.922C91.7887 127.336 92.2057 126.222 92.8736 125.989C92.9573 125.955 93.0472 125.936 93.1393 125.928ZM182.09 128.877C181.441 128.997 180.873 132.191 181.316 133.238C181.43 133.512 181.814 133.638 182.164 133.515C183.087 133.192 183.02 128.709 182.09 128.877ZM223.415 130.466C223.489 130.434 223.592 130.45 223.71 130.515C223.939 130.644 224.127 130.828 224.127 130.918C224.127 131.012 223.939 131.086 223.706 131.086C223.474 131.086 223.286 130.905 223.286 130.683C223.286 130.573 223.337 130.495 223.415 130.466ZM176.762 132.033C176.323 132.013 175.655 132.298 175.655 132.621C175.655 132.789 175.895 133.002 176.183 133.092C176.762 133.273 177.4 132.627 177.09 132.172C177.028 132.084 176.91 132.042 176.762 132.033ZM219.688 142.934C220.131 143.011 220.692 143.38 220.954 143.913C221.511 145.059 223.736 146.077 225.149 145.838L226.297 145.637L225.134 146.736C223.614 148.163 222.024 148.215 222.024 146.833C222.024 146.106 221.85 145.899 221.389 146.057C221.042 146.18 220.754 146.106 220.754 145.893C220.754 145.679 220.374 145.147 219.909 144.698C219.448 144.245 219.068 143.641 219.068 143.354C219.068 143.15 219.156 143.018 219.297 142.96C219.421 142.915 219.558 142.906 219.688 142.934ZM160.478 143.638C160.246 143.638 160.065 143.909 160.065 144.236C160.065 144.562 160.249 144.72 160.478 144.591C160.711 144.462 160.906 144.197 160.906 144C160.903 143.902 160.857 143.81 160.777 143.742C160.697 143.675 160.589 143.637 160.478 143.638ZM158.216 143.78C157.943 143.845 157.729 144.045 157.604 144.384C157.474 144.73 157.637 144.827 158.102 144.665C158.497 144.53 158.792 144.617 158.792 144.872C158.792 145.195 158.939 145.185 159.323 144.84C159.74 144.465 159.714 144.297 159.212 144.013C158.829 143.793 158.489 143.716 158.216 143.78ZM205.917 144.853C206.433 144.943 207.577 146.212 207.935 147.194C208.083 147.582 208.551 148.221 208.994 148.619C209.437 149.016 209.799 149.775 209.799 150.305C209.799 150.835 210.075 151.364 210.415 151.484C211.219 151.762 212.987 154.536 213.359 156.103C213.655 157.346 213.341 157.815 212.902 156.781C212.773 156.474 212.289 156.116 211.824 155.983C211.363 155.854 210.721 155.169 210.4 154.472C210.075 153.774 209.614 153.096 209.378 152.963C209.142 152.834 208.954 152.349 208.95 151.894C208.95 151.435 208.71 150.686 208.422 150.231C206.452 147.107 205.463 145.14 205.74 144.891C205.78 144.853 205.843 144.843 205.917 144.853ZM100.154 145.321C99.9559 145.336 99.7697 145.41 99.6263 145.531C99.3237 145.802 99.4861 145.925 100.124 145.925C100.634 145.925 101.047 146.093 101.047 146.303C101.047 146.513 101.143 146.684 101.257 146.684C101.375 146.684 101.471 146.445 101.471 146.154C101.471 145.634 100.748 145.263 100.154 145.321ZM288.086 146.787C287.934 146.8 287.717 146.955 287.344 147.262C286.495 147.957 286.311 148.813 286.772 149.888C286.912 150.221 287.178 150.486 287.362 150.486C287.883 150.486 288.728 147.879 288.433 147.188C288.322 146.917 288.237 146.778 288.086 146.787ZM100.294 146.845C99.9621 146.952 99.7407 147.446 99.999 147.821C100.139 148.031 100.434 148.209 100.652 148.209C101.169 148.209 101.169 147.175 100.66 146.887C100.607 146.856 100.546 146.835 100.483 146.828C100.419 146.821 100.355 146.827 100.294 146.845ZM96.5415 148.632C96.0763 148.639 95.6231 148.762 95.2352 148.987C93.94 149.646 93.3681 150.747 94.5304 150.344C94.9806 150.189 95.4382 150.279 95.6411 150.57C95.9252 150.961 96.0655 150.957 96.3644 150.544C96.8625 149.843 99.3902 150.35 100.124 151.296C100.479 151.749 101.187 152.013 102.102 152.013C102.885 152.013 103.648 152.175 103.792 152.385C103.936 152.595 103.752 152.773 103.394 152.773C102.778 152.773 102.508 153.205 102.907 153.561C103.003 153.648 103.671 153.722 104.383 153.722C105.493 153.722 105.682 153.577 105.682 152.753C105.682 151.946 105.305 151.636 103.372 150.867C102.095 150.36 101.047 149.84 101.047 149.707C101.047 149.578 99.9769 149.239 98.6743 148.955C97.6632 148.735 97.0359 148.625 96.5415 148.632ZM104.213 148.968C103.56 148.968 103.375 149.42 103.848 149.846C104.187 150.15 104.844 149.801 104.844 149.323C104.844 149.126 104.56 148.968 104.213 148.968ZM24.3355 149.727C24.2793 149.727 24.2239 149.738 24.1723 149.758C24.1207 149.777 24.0741 149.806 24.035 149.841C23.996 149.876 23.9652 149.918 23.9446 149.964C23.924 150.01 23.9139 150.059 23.9149 150.108C23.9149 150.318 24.1031 150.486 24.3355 150.486C24.4484 150.484 24.556 150.443 24.6348 150.373C24.7135 150.302 24.7572 150.207 24.7562 150.108C24.7572 150.059 24.7471 150.01 24.7265 149.964C24.7059 149.918 24.6751 149.876 24.6361 149.841C24.597 149.806 24.5504 149.777 24.4988 149.758C24.4472 149.738 24.3918 149.727 24.3355 149.727ZM25.413 150.108C24.7894 150.108 25.2802 150.847 26.0477 151.067C26.5274 151.203 27.0846 151.723 27.2986 152.223C27.5495 152.824 27.9001 153.063 28.3244 152.915C28.6787 152.792 28.9739 152.576 28.9739 152.437C28.9739 151.946 26.1621 150.108 25.413 150.108ZM104.962 150.457C104.796 150.44 104.575 150.634 104.482 150.886C104.39 151.135 104.541 151.274 104.818 151.19C105.364 151.028 105.468 150.502 104.962 150.457ZM107.065 151.626C106.29 151.626 106.106 151.842 106.106 152.708C106.106 153.302 106.239 153.9 106.397 154.042C106.556 154.184 106.877 154.129 107.11 153.916C107.346 153.706 108.073 153.528 108.722 153.528C109.372 153.528 109.903 153.367 109.903 153.173C109.903 152.598 108.117 151.626 107.065 151.626ZM101.014 152.815C100.346 152.837 99.7481 153.163 99.9953 153.525C100.342 154.029 102.316 154.026 102.316 153.519C102.316 153.302 102.029 153.028 101.678 152.908C101.466 152.838 101.24 152.806 101.014 152.815ZM111.272 152.84C110.619 152.756 110.327 152.908 110.327 153.338C110.327 153.767 110.619 153.926 111.268 153.842C111.792 153.777 112.22 153.548 112.22 153.338C112.22 153.128 111.792 152.908 111.268 152.84H111.272ZM287.377 152.879C286.993 152.857 286.934 153.105 286.934 153.855C286.934 154.478 286.739 155.05 286.499 155.118C285.982 155.276 287.248 158.855 287.82 158.855C288.03 158.855 288.189 159.161 288.189 159.533C288.189 159.904 288.484 160.57 288.827 161.015C289.381 161.726 289.381 161.849 288.827 162.043C288.648 162.113 288.494 162.224 288.382 162.366C288.27 162.507 288.205 162.672 288.193 162.844C288.193 163.283 288.462 163.377 289.248 163.199C290.03 163.021 290.303 163.109 290.303 163.541C290.303 163.864 290.635 164.194 291.041 164.278C292.115 164.491 292.824 164.191 292.901 163.48C293.123 161.377 292.278 160.056 291.281 160.961C290.337 161.81 289.757 161.639 290.049 160.599C290.303 159.682 289.658 158.742 288.521 158.373C288.226 158.28 288.093 158.102 288.222 157.976C288.348 157.85 288.957 157.983 289.584 158.276C290.669 158.784 290.728 158.767 290.728 157.915C290.728 157.227 290.433 156.962 289.462 156.768C288.052 156.49 287.883 156.135 288.835 155.424C289.241 155.121 289.377 154.649 289.204 154.142C288.875 153.173 289.027 153.302 287.886 152.982C287.721 152.932 287.551 152.897 287.377 152.879ZM286.267 159.242C285.964 159.242 284.558 160.696 283.96 161.62C283.333 162.589 284.152 162.459 285.436 161.38C286.396 160.579 286.912 159.242 286.267 159.242ZM330.583 159.242C330.225 159.242 329.93 159.41 329.93 159.62C329.93 159.83 330.104 159.998 330.321 159.998C330.539 159.998 330.834 159.83 330.978 159.62C331.122 159.41 330.941 159.242 330.583 159.242ZM330.794 160.809C330.672 160.799 330.561 160.822 330.484 160.89C330.362 161.003 330.388 161.271 330.543 161.494C330.886 161.994 331.613 162.03 331.613 161.542C331.613 161.206 331.152 160.851 330.794 160.809ZM334.558 161.332C334.329 161.203 334.144 161.364 334.144 161.687C334.144 162.01 334.329 162.285 334.561 162.285C334.79 162.285 334.989 162.123 334.989 161.923C334.989 161.726 334.786 161.461 334.558 161.332ZM283.591 162.653L282.89 163.603C282.506 164.129 281.942 164.562 281.628 164.562C281.315 164.562 280.853 164.904 280.606 165.321C280.359 165.741 279.905 166.09 279.595 166.09C279.281 166.09 278.776 166.348 278.481 166.671C278.185 166.994 277.684 167.169 277.366 167.059C277.027 166.943 276.591 167.253 276.311 167.805C276.281 167.863 276.256 167.892 276.226 167.944H276.233C276.458 169.236 276.898 170.131 277.226 171.132C277.232 171.31 277.311 171.481 277.449 171.613C277.586 171.745 277.773 171.83 277.975 171.852C278.381 171.884 279.185 171.968 279.765 172.039C282.868 172.421 282.864 172.424 283.898 170.747C283.964 170.634 284.038 170.563 284.112 170.457C284.16 170.098 284.407 169.275 284.466 169.229C284.532 169.191 285.333 168.512 285.344 168.503C285.344 168.432 285.407 168.367 285.58 168.367C285.875 168.367 285.779 167.947 285.337 167.253C284.654 166.18 284.661 166.112 285.536 165.428L286.451 164.714L285.016 163.68L283.591 162.653ZM287.757 163.803C287.51 163.803 287.421 163.974 287.565 164.184C287.709 164.394 287.912 164.562 288.012 164.562C288.115 164.562 288.193 164.391 288.193 164.184C288.193 164.134 288.182 164.084 288.161 164.038C288.139 163.991 288.107 163.949 288.066 163.914C288.026 163.878 287.978 163.85 287.924 163.831C287.871 163.812 287.815 163.803 287.757 163.803ZM264.252 164.371C264.055 164.332 263.85 164.334 263.654 164.378C263.448 164.433 263.329 164.565 263.329 164.775C263.329 165.822 264.093 166.726 265.385 167.211C266.012 167.443 266.566 167.824 266.765 168.115H266.78L266.791 168.144C266.805 168.163 266.857 168.196 266.864 168.218C266.864 168.225 266.85 168.231 266.85 168.238L267.4 169.126L267.964 170.079C268.621 171.187 272.399 174.52 273.728 175.16C274.233 175.402 275.152 175.596 275.761 175.596C276.374 175.596 277.189 175.744 277.58 175.925C277.971 176.106 279.101 176.345 280.086 176.461C281.647 176.639 281.875 176.574 281.875 175.945C281.875 175.483 281.58 175.215 281.064 175.215C280.621 175.215 280.189 175.021 280.101 174.779C280.012 174.54 279.093 174.313 278.06 174.268C274.75 174.129 273.872 173.755 273.872 172.508C273.872 171.516 273.975 171.423 274.92 171.636C275.61 171.791 275.968 171.713 275.968 171.41C275.968 171.158 275.687 171.054 275.34 171.174C274.994 171.297 274.713 171.213 274.713 170.993C274.713 170.315 273.536 169.507 272.887 169.733C271.669 169.633 271.558 168.91 270.754 167.857C269.481 167.202 268.264 166.468 267.112 165.66C266.045 164.933 264.979 164.485 264.252 164.371ZM293.949 166.991C293.661 167.017 293.425 167.327 293.329 167.918C293.304 168.092 293.23 168.258 293.115 168.403C293.425 169.523 294.477 169.549 294.521 169.588C294.742 169.294 295.049 169.049 295.34 168.751L294.861 167.789C294.58 167.227 294.237 166.965 293.949 166.991ZM291.292 167.44C291.065 167.473 290.846 167.542 290.647 167.643C290.2 167.86 289.259 167.928 288.562 167.789C287.65 167.608 287.067 167.724 286.481 168.205C286.481 168.205 286.536 168.186 286.536 168.193C286.517 168.257 286.038 169.423 285.923 169.698C285.868 169.898 285.85 170.04 285.665 170.473C285.433 171.025 285.385 171.678 285.558 171.923C285.769 172.294 285.879 172.704 285.879 173.118C285.879 173.532 286.211 173.929 286.617 174C287.171 174.097 287.37 173.861 287.407 173.054C287.436 172.372 287.525 172.23 287.65 172.666C287.909 173.583 289.248 173.328 289.285 172.356C289.303 171.951 289.195 171.549 288.971 171.193C288.772 170.951 289.064 170.441 289.683 169.953C289.802 169.862 289.964 169.808 290.104 169.73L290.182 169.636L288.868 169.475L288.447 169.52C288.333 169.556 288.337 169.585 288.2 169.617C287.735 169.727 287.351 169.665 287.351 169.475C287.96 168.858 289.167 168.871 290.163 168.69L291.34 168.509C291.378 168.41 291.439 168.319 291.517 168.241C292.004 167.715 291.827 167.375 291.292 167.44ZM204.577 169.126C204.898 169.126 205.16 169.278 205.16 169.462C205.16 169.937 204.083 170.689 203.784 170.421C203.378 170.053 203.943 169.126 204.577 169.126ZM298.204 169.362C297.772 169.394 297.362 169.459 297.119 169.462C296.646 169.733 296.646 169.937 297.119 170.683C297.931 171.962 298.595 172.55 299.229 172.556C300.137 172.566 302.934 173.529 303.477 174.019C303.864 174.372 303.871 174.643 303.469 175.221C302.709 176.319 302.816 176.474 304.178 176.229C304.99 176.083 305.573 176.197 305.912 176.565C306.65 177.369 308.322 177.243 308.849 176.355C309.447 175.344 309.827 175.399 311.469 176.684C312.871 177.779 315.381 178.499 315.779 177.925C315.897 177.75 315.248 177.065 314.34 176.406C312.347 174.959 312.458 174.2 314.65 174.355C316.447 174.485 318.377 173.322 317.971 172.362C317.65 171.616 317.085 171.642 316.2 172.443C315.801 172.802 315.24 173.128 314.953 173.167C314.349 173.258 313.749 173.364 313.152 173.483C312.13 173.687 311.683 173.558 310.89 172.811C310.318 172.275 308.491 171.471 306.55 170.912L303.2 169.95L302.019 170.709L300.842 171.461L300.429 170.483C300.207 169.95 299.783 169.481 299.488 169.426L299.48 169.42H299.451C299.043 169.333 298.62 169.314 298.204 169.362ZM312.034 170.273C311.672 170.273 311.384 170.444 311.384 170.651C311.384 170.861 311.558 171.032 311.775 171.032C311.997 171.032 312.292 170.861 312.44 170.651C312.584 170.441 312.392 170.273 312.034 170.273ZM315.17 170.651C315.114 170.651 315.059 170.662 315.007 170.682C314.955 170.701 314.909 170.729 314.87 170.765C314.831 170.8 314.8 170.842 314.779 170.888C314.759 170.934 314.749 170.983 314.75 171.032C314.75 171.242 314.942 171.41 315.17 171.41C315.227 171.409 315.282 171.399 315.334 171.38C315.386 171.361 315.432 171.333 315.472 171.298C315.511 171.263 315.542 171.221 315.563 171.175C315.585 171.13 315.595 171.081 315.595 171.032C315.596 170.982 315.585 170.933 315.565 170.887C315.544 170.841 315.513 170.799 315.473 170.764C315.434 170.728 315.387 170.7 315.335 170.681C315.283 170.661 315.227 170.651 315.17 170.651ZM295.156 171.151C294.761 171.151 294.311 171.184 293.816 171.248C292.167 171.474 291.676 171.755 292.167 172.201C292.591 172.589 297.049 172.337 297.049 171.926C297.049 171.416 296.348 171.142 295.156 171.151ZM319.211 173.396C319.037 173.467 319.019 173.745 319.218 174.204C319.366 174.549 319.857 174.837 320.318 174.837C320.809 174.837 321.244 175.16 321.381 175.625C321.558 176.238 321.838 176.361 322.606 176.187C323.417 176.003 323.606 176.106 323.606 176.752C323.606 177.353 323.827 177.524 324.521 177.43C325.949 177.243 325.886 176.494 324.392 175.819C323.314 175.334 322.96 175.308 322.687 175.689C322.44 176.032 322.266 175.922 322.078 175.308C321.938 174.837 321.624 174.456 321.377 174.456C321.137 174.456 320.584 174.175 320.159 173.826C319.716 173.467 319.384 173.325 319.211 173.396ZM292.96 175.37C292.54 175.35 291.993 175.534 291.51 175.945C290.993 176.381 290.414 176.739 290.226 176.739C290.038 176.739 289.883 176.991 289.883 177.308C289.883 178.031 290.1 178.025 292.052 177.211C292.934 176.846 293.658 176.329 293.665 176.061C293.676 175.628 293.377 175.392 292.96 175.37ZM286.872 175.777C284.779 175.78 283.787 175.938 283.661 176.28C283.521 176.658 284.174 176.746 286.54 176.658C290.599 176.51 290.883 175.764 286.872 175.777ZM308.071 177.724C308.004 177.692 307.942 177.705 307.857 177.744C307.709 177.832 307.576 177.936 307.458 178.054C307.067 178.409 306.746 179.262 306.746 179.953C306.746 181.697 306.288 183.59 305.868 183.59C305.672 183.59 304.669 183.125 303.635 182.56C301.757 181.539 301.75 181.529 302.381 180.431C303.122 179.133 302.912 178.848 301.122 178.764C300.262 178.716 299.408 178.603 298.569 178.428C297.694 178.228 297.425 178.273 297.639 178.583C297.816 178.842 297.669 179.02 297.27 179.02C296.897 179.02 296.266 179.533 295.868 180.16C295.111 181.361 294.735 181.542 294.307 180.919C293.79 180.163 292.111 180.56 290.986 181.694C290.362 182.33 289.695 182.77 289.51 182.666C289.329 182.566 288.864 183.125 288.477 183.919C287.923 185.05 287.421 185.467 286.145 185.812C285.248 186.054 284.233 186.248 283.883 186.248C283.532 186.248 283.001 186.513 282.702 186.839C282.407 187.162 281.916 187.34 281.613 187.237C280.816 186.962 280.58 187.495 280.444 189.914C280.355 191.471 280.562 192.498 281.178 193.629C281.717 194.62 282.041 196.019 282.071 197.473C282.108 199.591 282.2 199.792 283.318 200.279C284.37 200.735 284.68 200.715 285.695 200.173C286.337 199.83 287.735 199.452 288.798 199.32C289.861 199.191 290.724 198.942 290.724 198.784C290.724 197.967 296.421 196.943 298.104 197.46C299.248 197.812 300.624 198.984 300.628 199.624C300.635 200.14 301.373 200.515 303.093 200.89C304.403 201.174 304.879 201.484 304.975 202.091C305.181 203.406 306.536 204.217 308.591 204.268C309.624 204.298 310.609 204.443 310.783 204.601C311.229 205.002 311.333 204.979 312.532 204.126C313.122 203.706 313.956 203.367 314.388 203.367C314.905 203.367 315.17 203.096 315.17 202.576C315.17 202.14 315.868 200.554 316.713 199.055C318.056 196.675 318.251 195.996 318.226 193.726C318.203 191.455 318.056 190.983 317.108 190.089C316.506 189.523 316.012 188.897 316.008 188.7C316.004 188.503 315.528 187.934 314.953 187.44C314.377 186.949 313.908 186.426 313.908 186.284C313.908 186.142 313.333 185.728 312.639 185.357C311.942 184.985 311.377 184.478 311.377 184.23C311.37 183.021 310.425 180.919 309.89 180.919C309.543 180.919 309.06 180.186 308.728 179.162C308.432 178.238 308.27 177.815 308.071 177.724ZM214.02 178.451C213.78 178.583 213.688 178.855 213.824 179.049C214.186 179.578 214.444 179.475 214.444 178.806C214.444 178.483 214.256 178.322 214.02 178.451ZM219.297 179.039C218.942 179.007 218.655 179.181 218.655 179.591C218.655 179.905 218.466 180.156 218.234 180.156C218.002 180.156 217.813 180.425 217.813 180.751C217.813 181.074 217.157 181.591 216.348 181.894C214.847 182.463 214.097 183.758 214.603 184.94C214.74 185.266 214.57 186.038 214.216 186.652C213.588 187.75 213.692 189.081 214.518 190.528C214.939 191.271 215.599 191.355 217.064 190.851C217.861 190.58 218.245 189.898 219.027 187.337C219.559 185.586 220.171 183.764 220.382 183.283C220.894 182.13 220.865 180.667 220.326 179.753C220.068 179.32 219.651 179.074 219.297 179.039ZM215.348 179.094C215.204 179.068 215.072 179.081 214.987 179.162C214.817 179.317 214.95 179.598 215.286 179.785C216.075 180.224 216.422 179.898 215.788 179.323C215.67 179.212 215.515 179.133 215.348 179.094ZM327.679 185.867C327.063 185.867 327.469 186.655 328.558 187.566C329.727 188.545 330.779 188.829 330.779 188.17C330.779 187.802 328.178 185.867 327.679 185.867ZM225.4 186.626C225.167 186.626 224.983 186.804 224.983 187.014C224.983 187.22 225.167 187.392 225.4 187.392C225.514 187.39 225.622 187.35 225.702 187.279C225.782 187.208 225.827 187.113 225.828 187.014C225.828 186.913 225.783 186.816 225.704 186.744C225.624 186.672 225.515 186.63 225.4 186.626ZM302.558 199.562C302.801 199.562 302.89 199.734 302.75 199.943C302.602 200.153 302.403 200.321 302.3 200.321C302.196 200.321 302.115 200.153 302.115 199.943C302.115 199.734 302.311 199.562 302.558 199.562ZM336.214 199.692C336.104 199.659 336.011 199.659 335.967 199.701C335.797 199.853 336.118 200.744 336.687 201.681C337.591 203.173 337.65 203.477 337.152 204.201C336.657 204.911 336.676 205.089 337.262 205.476C338.307 206.168 338.078 206.478 336.628 206.342C335.513 206.242 335.207 206.413 334.554 207.502C333.973 208.356 333.204 209.1 332.292 209.692C330.218 210.964 329.159 212.88 330.528 212.88C330.916 212.88 331.045 213.144 330.897 213.639C330.624 214.588 330.727 214.588 332.797 213.59C334 213.009 334.558 212.463 334.731 211.678C334.879 211.006 335.344 210.454 335.93 210.257C336.458 210.082 336.849 209.837 336.801 209.708C336.602 209.175 337.768 207.311 338.214 207.447C338.801 207.624 340.554 205.693 340.233 205.221C340.107 205.037 340.277 204.892 340.609 204.892C341.236 204.892 341.864 203.477 341.48 202.922C341.362 202.744 340.797 202.712 340.233 202.838C339.524 202.999 339.207 202.909 339.2 202.553C339.181 201.94 337.011 199.947 336.214 199.692ZM311.598 206.206C309.48 206.197 309.347 206.433 310.314 208.516C310.646 209.243 311.148 209.837 311.432 209.837C312.425 209.837 313.499 208.577 313.499 207.402C313.495 206.261 313.432 206.216 311.598 206.206Z" fill="white"/>
<g clip-path="url(#clip0_33_228)">
<path d="M320.827 158.892C322.005 157.269 322.684 155.333 322.787 153.308C322.889 151.283 322.41 149.249 321.405 147.441C320.401 145.633 318.91 144.123 317.105 143.084C315.301 142.046 313.254 141.521 311.201 141.57C309.148 141.618 307.171 142.239 305.498 143.36C303.824 144.481 302.521 146.057 301.738 147.908C300.955 149.759 300.724 151.809 301.071 153.824C301.419 155.839 302.33 157.736 303.702 159.299L282.237 188.871L281.874 193.691L286.344 191.852L307.808 162.28C310.101 163.256 312.632 163.453 314.993 162.838C317.355 162.224 319.41 160.834 320.827 158.892ZM314.904 153.64C314.455 153.314 314.11 152.867 313.911 152.356C313.712 151.845 313.669 151.293 313.787 150.769C313.905 150.245 314.179 149.773 314.574 149.413C314.969 149.053 315.468 148.82 316.007 148.745C316.546 148.67 317.102 148.755 317.603 148.99C318.105 149.225 318.529 149.6 318.824 150.066C319.119 150.533 319.27 151.07 319.258 151.61C319.247 152.151 319.073 152.67 318.76 153.102C318.339 153.681 317.697 154.064 316.974 154.165C316.25 154.265 315.506 154.077 314.904 153.64Z" fill="#8F744C"/>
</g>
<defs>
<clipPath id="clip0_33_228">
<rect width="68.3696" height="65.8301" fill="white" transform="translate(291.669 122) rotate(35.9731)"/>
</clipPath>
</defs>
</svg>
