<svg width="37" height="36" viewBox="0 0 37 36" fill="none" xmlns="http://www.w3.org/2000/svg">
<path d="M7.70833 33C6.86042 33 6.13429 32.7065 5.52996 32.1195C4.92665 31.5315 4.625 30.825 4.625 30V9C4.625 8.175 4.92665 7.469 5.52996 6.882C6.13429 6.294 6.86042 6 7.70833 6H9.25V3H12.3333V6H24.6667V3H27.75V6H29.2917C30.1396 6 30.8657 6.294 31.47 6.882C32.0733 7.469 32.375 8.175 32.375 9V30C32.375 30.825 32.0733 31.5315 31.47 32.1195C30.8657 32.7065 30.1396 33 29.2917 33H7.70833ZM7.70833 30H29.2917V15H7.70833V30ZM7.70833 12H29.2917V9H7.70833V12ZM18.5 21C18.0632 21 17.6973 20.856 17.4023 20.568C17.1063 20.281 16.9583 19.925 16.9583 19.5C16.9583 19.075 17.1063 18.7185 17.4023 18.4305C17.6973 18.1435 18.0632 18 18.5 18C18.9368 18 19.3032 18.1435 19.5992 18.4305C19.8942 18.7185 20.0417 19.075 20.0417 19.5C20.0417 19.925 19.8942 20.281 19.5992 20.568C19.3032 20.856 18.9368 21 18.5 21ZM12.3333 21C11.8965 21 11.5301 20.856 11.2341 20.568C10.9392 20.281 10.7917 19.925 10.7917 19.5C10.7917 19.075 10.9392 18.7185 11.2341 18.4305C11.5301 18.1435 11.8965 18 12.3333 18C12.7701 18 13.1365 18.1435 13.4325 18.4305C13.7275 18.7185 13.875 19.075 13.875 19.5C13.875 19.925 13.7275 20.281 13.4325 20.568C13.1365 20.856 12.7701 21 12.3333 21ZM24.6667 21C24.2299 21 23.864 20.856 23.569 20.568C23.273 20.281 23.125 19.925 23.125 19.5C23.125 19.075 23.273 18.7185 23.569 18.4305C23.864 18.1435 24.2299 18 24.6667 18C25.1035 18 25.4694 18.1435 25.7643 18.4305C26.0603 18.7185 26.2083 19.075 26.2083 19.5C26.2083 19.925 26.0603 20.281 25.7643 20.568C25.4694 20.856 25.1035 21 24.6667 21ZM18.5 27C18.0632 27 17.6973 26.856 17.4023 26.568C17.1063 26.281 16.9583 25.925 16.9583 25.5C16.9583 25.075 17.1063 24.719 17.4023 24.432C17.6973 24.144 18.0632 24 18.5 24C18.9368 24 19.3032 24.144 19.5992 24.432C19.8942 24.719 20.0417 25.075 20.0417 25.5C20.0417 25.925 19.8942 26.281 19.5992 26.568C19.3032 26.856 18.9368 27 18.5 27ZM12.3333 27C11.8965 27 11.5301 26.856 11.2341 26.568C10.9392 26.281 10.7917 25.925 10.7917 25.5C10.7917 25.075 10.9392 24.719 11.2341 24.432C11.5301 24.144 11.8965 24 12.3333 24C12.7701 24 13.1365 24.144 13.4325 24.432C13.7275 24.719 13.875 25.075 13.875 25.5C13.875 25.925 13.7275 26.281 13.4325 26.568C13.1365 26.856 12.7701 27 12.3333 27ZM24.6667 27C24.2299 27 23.864 26.856 23.569 26.568C23.273 26.281 23.125 25.925 23.125 25.5C23.125 25.075 23.273 24.719 23.569 24.432C23.864 24.144 24.2299 24 24.6667 24C25.1035 24 25.4694 24.144 25.7643 24.432C26.0603 24.719 26.2083 25.075 26.2083 25.5C26.2083 25.925 26.0603 26.281 25.7643 26.568C25.4694 26.856 25.1035 27 24.6667 27Z" fill="white"/>
</svg>
