<svg width="41" height="42" viewBox="0 0 41 42" fill="none" xmlns="http://www.w3.org/2000/svg">
<path d="M20.5 21C18.6208 21 17.0121 20.3146 15.6739 18.9437C14.3357 17.5729 13.6666 15.925 13.6666 14C13.6666 12.075 14.3357 10.4271 15.6739 9.05625C17.0121 7.68542 18.6208 7 20.5 7C22.3791 7 23.9878 7.68542 25.326 9.05625C26.6642 10.4271 27.3333 12.075 27.3333 14C27.3333 15.925 26.6642 17.5729 25.326 18.9437C23.9878 20.3146 22.3791 21 20.5 21ZM6.83331 35V30.1C6.83331 29.1083 7.08273 28.1966 7.58156 27.3647C8.07926 26.5341 8.74095 25.9 9.56665 25.4625C11.3319 24.5583 13.1257 23.8799 14.9479 23.4272C16.7701 22.9757 18.6208 22.75 20.5 22.75C22.3791 22.75 24.2298 22.9757 26.0521 23.4272C27.8743 23.8799 29.668 24.5583 31.4333 25.4625C32.259 25.9 32.9207 26.5341 33.4184 27.3647C33.9172 28.1966 34.1666 29.1083 34.1666 30.1V35H6.83331Z" fill="white"/>
</svg>
